<?xml version="1.0" encoding="utf-8"?>
<!-- Generator: Adobe Illustrator 27.5.0, SVG Export Plug-In . SVG Version: 6.00 Build 0)  -->
<svg version="1.1" xmlns="http://www.w3.org/2000/svg" xmlns:xlink="http://www.w3.org/1999/xlink" x="0px" y="0px"
	 viewBox="0 0 500 500" style="enable-background:new 0 0 500 500;" xml:space="preserve">
<g id="Device">
	<g id="Device_00000012435990935895202080000014756864295897468318_">
		<path style="fill:#303030;stroke:#303030;stroke-linecap:round;stroke-linejoin:round;stroke-miterlimit:10;" d="M253.679,265.07
			h-59.482l0,0c0,1.867,1.514,3.38,3.38,3.38h56.101V265.07z"/>
		<polygon style="fill:#303030;" points="262.923,211.834 265.343,211.834 253.474,269.145 251.054,269.145 		"/>
		<path style="fill:#F55571;" d="M265.343,211.834h0.819c1.247,0,2.039,1.056,1.769,2.359l-10.892,52.592
			c-0.27,1.303-1.499,2.359-2.746,2.359h-0.819L265.343,211.834z"/>
	</g>
</g>
<g id="Speech_Bubble_2">
	<g id="Speech_Bubble_00000029730619661775314100000009797317413029066888_">
		
			<path id="Speech_Bubble_00000134944671757278554190000016782252861613663886_" style="fill:#FFFFFF;stroke:#303030;stroke-width:1.5;stroke-linecap:round;stroke-linejoin:round;stroke-miterlimit:10;" d="
			M380.86,163.759c-2.772-1.897-5.084-4.38-6.609-6.98c7.693-5.17,12.643-13.211,12.643-22.249
			c0-15.599-14.727-28.245-32.895-28.245c-18.167,0-32.894,12.646-32.894,28.245c0,15.599,14.727,28.245,32.894,28.245
			c3.16,0,6.212-0.391,9.104-1.105c4.447,3.575,10.501,5.36,16.903,4.964C381.505,166.541,382.099,164.606,380.86,163.759z"/>
		<g>
			<path style="fill:#00826F;" d="M353.446,143.574c-2.592,0-5.201-0.679-7.443-2.03c-0.224-0.135-0.443-0.276-0.656-0.423
				c-0.469,0.353-0.946,0.649-1.422,0.877c-3.22,1.482-6.821,1.206-9.422-0.707c-0.749-0.551-0.909-1.605-0.358-2.353
				c0.551-0.749,1.604-0.91,2.353-0.358c1.589,1.17,3.943,1.314,5.996,0.37c0.104-0.05,0.21-0.105,0.315-0.167
				c-1.621-2.01-2.506-4.501-2.506-7.215c0-3.689,1.727-7.411,5.584-7.411c1.412,0,2.64,0.551,3.552,1.592
				c1.488,1.7,1.755,4.28,1.509,6.128c-0.298,2.241-1.536,4.781-3.156,6.816c3.167,1.88,7.444,2.001,10.668,0.298
				c0.115-0.055,0.231-0.117,0.347-0.185c-1.518-2.127-2.455-4.731-2.455-7.238c0-3.689,1.727-7.411,5.584-7.411
				c1.411,0,2.64,0.551,3.552,1.592c1.488,1.7,1.755,4.28,1.509,6.128c-0.312,2.344-1.652,5.013-3.38,7.092
				c0.332,0.236,0.677,0.441,1.033,0.61c1.664,0.79,3.199,0.627,4.561-0.484c0.72-0.588,1.78-0.48,2.368,0.24
				c0.588,0.72,0.48,1.781-0.24,2.368c-2.353,1.92-5.317,2.253-8.133,0.918c-0.726-0.345-1.419-0.789-2.066-1.314
				c-0.387,0.272-0.778,0.505-1.168,0.692C357.986,143.05,355.722,143.574,353.446,143.574z M361.938,127.524
				c-2.193,0-2.218,3.88-2.218,4.045c0,1.673,0.6,3.441,1.572,4.931c1.208-1.55,2.158-3.477,2.37-5.067
				c0.181-1.359-0.109-2.784-0.706-3.466C362.689,127.66,362.374,127.524,361.938,127.524z M345.888,127.524
				c-2.193,0-2.218,3.88-2.218,4.045c0,1.854,0.555,3.526,1.601,4.906c1.186-1.539,2.13-3.457,2.341-5.042
				c0.181-1.359-0.109-2.784-0.706-3.466C346.639,127.66,346.325,127.524,345.888,127.524z"/>
		</g>
	</g>
</g>
<g id="Speech_Bubble_1">
	<g id="Speech_Bubble_00000129186079278854696760000003015735560334602143_">
		
			<path id="Speech_Bubble_00000131326372639672322130000009137671088676454074_" style="fill:#FFFFFF;stroke:#303030;stroke-width:1.5;stroke-linecap:round;stroke-linejoin:round;stroke-miterlimit:10;" d="
			M139.004,104.543c-29.666,1.073-38.384,37.567-16.813,53.085c0.269,3.515-2.688,7.183-5.202,8.545
			c-1.278,0.692,0.468,1.887,5.082,0.836c4.198-0.956,7.09-3.338,8.991-5.938c15.551,5.477,41.455-2.459,41.487-27.429
			C172.566,120.123,162.561,103.691,139.004,104.543z"/>
		<path style="fill:#FF95FB;" d="M140.328,143.03c-1.416,0-2.574,0.469-3.476,1.406c-0.902,0.938-1.353,2.115-1.353,3.529
			c0,1.345,0.451,2.494,1.353,3.45c0.902,0.955,2.061,1.433,3.476,1.433c1.38,0,2.521-0.478,3.423-1.433
			c0.902-0.955,1.354-2.105,1.354-3.45c0-1.415-0.451-2.591-1.354-3.529C142.848,143.499,141.708,143.03,140.328,143.03z
			 M149.774,119.72c-0.991-1.646-2.371-2.946-4.14-3.901c-1.77-0.955-3.804-1.433-6.103-1.433c-2.76,0-5.148,0.646-7.165,1.937
			c-0.944,0.605-1.784,1.297-2.519,2.076c-1.377,1.46-1.259,3.78,0.204,5.153l0,0c1.383,1.299,3.507,1.305,4.945,0.069
			c0.186-0.16,0.38-0.311,0.58-0.452c1.079-0.761,2.273-1.141,3.582-1.141c0.849,0,1.592,0.151,2.229,0.451
			c0.636,0.3,1.132,0.743,1.486,1.326c0.354,0.584,0.53,1.265,0.53,2.044c0,0.814-0.186,1.512-0.557,2.096
			c-0.371,0.584-0.885,1.035-1.539,1.354c-0.655,0.318-1.425,0.478-2.309,0.478h-2.282l0.29,6.963
			c0.075,1.803,1.559,3.226,3.364,3.226l0,0c1.768,0,3.235-1.368,3.358-3.132l0.086-1.232c0.969-0.359,1.881-0.798,2.721-1.341
			c1.45-0.937,2.6-2.149,3.45-3.636c0.849-1.486,1.274-3.272,1.274-5.36C151.261,123.214,150.764,121.365,149.774,119.72z"/>
	</g>
</g>
<g id="CV">
	<g id="Document">
		
			<path style="fill:#FFFFFF;stroke:#FF95FB;stroke-width:1.5;stroke-linecap:round;stroke-linejoin:round;stroke-miterlimit:10;" d="
			M295.843,50.87h-95.11c-2.197,0-3.979,1.781-3.979,3.979v136.442c0,2.197,1.781,3.979,3.979,3.979h22.723
			c0.806,5.23,4.312,13.012,14.158,14.687c-4.286-4.13-3.707-10.76-2.859-14.687h61.088c2.197,0,3.979-1.781,3.979-3.979V54.849
			C299.822,52.652,298.04,50.87,295.843,50.87z"/>
		<g>
			
				<line style="fill:#FFFFFF;stroke:#FF95FB;stroke-width:1.5;stroke-linecap:round;stroke-linejoin:round;stroke-miterlimit:10;" x1="203.417" y1="59.958" x2="293.424" y2="59.958"/>
			<g id="Photo_00000177442090424638574010000005990733705151344777_">
				
					<path style="fill:#FFFFFF;stroke:#303030;stroke-width:1.5;stroke-linecap:round;stroke-linejoin:round;stroke-miterlimit:10;" d="
					M233.426,105.998h-26.689c-1.653,0-2.993-1.34-2.993-2.993v-32.9c0-1.653,1.34-2.993,2.993-2.993h26.689
					c1.653,0,2.993,1.34,2.993,2.993v32.9C236.419,104.658,235.079,105.998,233.426,105.998z"/>
			</g>
			<g>
				<path style="fill:#F55571;" d="M256.983,68.156h-14.207c-0.57,0-1.031-0.551-1.031-1.231l0,0c0-0.68,0.462-1.231,1.031-1.231
					h14.207c0.57,0,1.031,0.551,1.031,1.231l0,0C258.014,67.605,257.552,68.156,256.983,68.156z"/>
				<path style="fill:#F55571;" d="M285.089,68.156h-23.661c-0.57,0-1.031-0.551-1.031-1.231l0,0c0-0.68,0.462-1.231,1.031-1.231
					h23.661c0.57,0,1.031,0.551,1.031,1.231l0,0C286.12,67.605,285.658,68.156,285.089,68.156z"/>
			</g>
			<g>
				
					<line style="fill:none;stroke:#303030;stroke-width:1.5;stroke-linecap:round;stroke-linejoin:round;stroke-miterlimit:10;" x1="242.074" y1="74.215" x2="293.365" y2="74.215"/>
				
					<line style="fill:none;stroke:#303030;stroke-width:1.5;stroke-linecap:round;stroke-linejoin:round;stroke-miterlimit:10;" x1="242.074" y1="78.527" x2="293.365" y2="78.527"/>
				
					<line style="fill:none;stroke:#303030;stroke-width:1.5;stroke-linecap:round;stroke-linejoin:round;stroke-miterlimit:10;" x1="242.074" y1="82.84" x2="293.365" y2="82.84"/>
				
					<line style="fill:none;stroke:#303030;stroke-width:1.5;stroke-linecap:round;stroke-linejoin:round;stroke-miterlimit:10;" x1="242.074" y1="87.152" x2="271.141" y2="87.152"/>
			</g>
			<g>
				
					<line style="fill:none;stroke:#303030;stroke-width:1.5;stroke-linecap:round;stroke-linejoin:round;stroke-miterlimit:10;" x1="242.074" y1="93.821" x2="293.365" y2="93.821"/>
				
					<line style="fill:none;stroke:#303030;stroke-width:1.5;stroke-linecap:round;stroke-linejoin:round;stroke-miterlimit:10;" x1="242.074" y1="98.133" x2="293.365" y2="98.133"/>
				
					<line style="fill:none;stroke:#303030;stroke-width:1.5;stroke-linecap:round;stroke-linejoin:round;stroke-miterlimit:10;" x1="242.074" y1="102.445" x2="293.365" y2="102.445"/>
				
					<line style="fill:none;stroke:#303030;stroke-width:1.5;stroke-linecap:round;stroke-linejoin:round;stroke-miterlimit:10;" x1="242.074" y1="106.757" x2="271.141" y2="106.757"/>
			</g>
			<path style="fill:#F55571;" d="M226.214,115.601h-21.579c-0.658,0-1.19-0.636-1.19-1.421l0,0c0-0.785,0.533-1.421,1.19-1.421
				h21.579c0.658,0,1.191,0.636,1.191,1.421l0,0C227.404,114.965,226.871,115.601,226.214,115.601z"/>
			<path style="fill:#F55571;" d="M282.685,115.601h-21.579c-0.657,0-1.19-0.636-1.19-1.421l0,0c0-0.785,0.533-1.421,1.19-1.421
				h21.579c0.658,0,1.19,0.636,1.19,1.421l0,0C283.875,114.965,283.342,115.601,282.685,115.601z"/>
			<g>
				<rect x="203.831" y="120.077" style="fill:#00826F;" width="3.69" height="4.405"/>
				<g>
					<path style="fill:#FFFFFF;" d="M212.724,124.438c-1.064,0-1.93-0.968-1.93-2.158c0-1.19,0.866-2.158,1.93-2.158h34.517
						c1.064,0,1.93,0.968,1.93,2.158c0,1.19-0.866,2.158-1.93,2.158H212.724z"/>
					<path style="fill:#303030;" d="M247.241,120.871c0.652,0,1.18,0.631,1.18,1.408c0,0.778-0.528,1.408-1.18,1.408h-34.517
						c-0.651,0-1.18-0.631-1.18-1.408c0-0.778,0.528-1.408,1.18-1.408H247.241 M247.241,119.371h-34.517
						c-1.477,0-2.68,1.305-2.68,2.908c0,1.604,1.202,2.908,2.68,2.908h34.517c1.478,0,2.68-1.305,2.68-2.908
						C249.92,120.676,248.718,119.371,247.241,119.371L247.241,119.371z"/>
				</g>
				<path style="fill:#00826F;" d="M240.173,123.688h-27.449c-0.651,0-1.18-0.631-1.18-1.408l0,0c0-0.778,0.528-1.408,1.18-1.408
					h27.449c0.652,0,1.18,0.631,1.18,1.408l0,0C241.352,123.057,240.824,123.688,240.173,123.688z"/>
			</g>
			<g>
				<rect x="203.831" y="128.957" style="fill:#00826F;" width="3.69" height="4.405"/>
				<g>
					<path style="fill:#FFFFFF;" d="M212.724,133.318c-1.064,0-1.93-0.968-1.93-2.158c0-1.19,0.866-2.158,1.93-2.158h34.517
						c1.064,0,1.93,0.968,1.93,2.158c0,1.19-0.866,2.158-1.93,2.158H212.724z"/>
					<path style="fill:#303030;" d="M247.241,129.751c0.652,0,1.18,0.631,1.18,1.408s-0.528,1.408-1.18,1.408h-34.517
						c-0.651,0-1.18-0.631-1.18-1.408s0.528-1.408,1.18-1.408H247.241 M247.241,128.251h-34.517c-1.477,0-2.68,1.305-2.68,2.908
						c0,1.604,1.202,2.908,2.68,2.908h34.517c1.478,0,2.68-1.305,2.68-2.908C249.92,129.556,248.718,128.251,247.241,128.251
						L247.241,128.251z"/>
				</g>
				<path style="fill:#00826F;" d="M244.895,132.568h-32.171c-0.651,0-1.18-0.63-1.18-1.408l0,0c0-0.778,0.528-1.408,1.18-1.408
					h32.171c0.652,0,1.18,0.631,1.18,1.408l0,0C246.074,131.938,245.546,132.568,244.895,132.568z"/>
			</g>
			<g>
				<rect x="203.831" y="137.838" style="fill:#00826F;" width="3.69" height="4.405"/>
				<g>
					<path style="fill:#FFFFFF;" d="M212.724,142.198c-1.064,0-1.93-0.968-1.93-2.158c0-1.19,0.866-2.158,1.93-2.158h34.517
						c1.064,0,1.93,0.968,1.93,2.158c0,1.19-0.866,2.158-1.93,2.158H212.724z"/>
					<path style="fill:#303030;" d="M247.241,138.632c0.652,0,1.18,0.63,1.18,1.408c0,0.778-0.528,1.408-1.18,1.408h-34.517
						c-0.651,0-1.18-0.63-1.18-1.408c0-0.778,0.528-1.408,1.18-1.408H247.241 M247.241,137.132h-34.517
						c-1.477,0-2.68,1.305-2.68,2.908c0,1.604,1.202,2.908,2.68,2.908h34.517c1.478,0,2.68-1.305,2.68-2.908
						C249.92,138.437,248.718,137.132,247.241,137.132L247.241,137.132z"/>
				</g>
				<path style="fill:#00826F;" d="M230.014,141.448h-17.291c-0.651,0-1.18-0.63-1.18-1.408l0,0c0-0.778,0.528-1.408,1.18-1.408
					h17.291c0.652,0,1.18,0.631,1.18,1.408l0,0C231.194,140.818,230.666,141.448,230.014,141.448z"/>
			</g>
			<g>
				<rect x="203.831" y="146.718" style="fill:#00826F;" width="3.69" height="4.405"/>
				<g>
					<path style="fill:#FFFFFF;" d="M212.724,151.079c-1.064,0-1.93-0.968-1.93-2.158c0-1.19,0.866-2.159,1.93-2.159h34.517
						c1.064,0,1.93,0.968,1.93,2.159c0,1.19-0.866,2.158-1.93,2.158H212.724z"/>
					<path style="fill:#303030;" d="M247.241,147.512c0.652,0,1.18,0.63,1.18,1.408c0,0.778-0.528,1.408-1.18,1.408h-34.517
						c-0.651,0-1.18-0.631-1.18-1.408c0-0.778,0.528-1.408,1.18-1.408H247.241 M247.241,146.012h-34.517
						c-1.477,0-2.68,1.305-2.68,2.908c0,1.604,1.202,2.908,2.68,2.908h34.517c1.478,0,2.68-1.305,2.68-2.908
						C249.92,147.317,248.718,146.012,247.241,146.012L247.241,146.012z"/>
				</g>
				<path style="fill:#00826F;" d="M236.824,150.329h-24.101c-0.651,0-1.18-0.631-1.18-1.408l0,0c0-0.778,0.528-1.408,1.18-1.408
					h24.101c0.652,0,1.18,0.63,1.18,1.408l0,0C238.004,149.698,237.476,150.329,236.824,150.329z"/>
			</g>
			
				<line style="fill:none;stroke:#303030;stroke-width:1.5;stroke-linecap:round;stroke-linejoin:round;stroke-miterlimit:10;" x1="255.693" y1="113.994" x2="255.693" y2="151.969"/>
			<g>
				<path style="fill-rule:evenodd;clip-rule:evenodd;fill:#00826F;" d="M229.452,187.167h-17.566c-0.456,0-0.826-0.37-0.826-0.826
					l0,0c0-0.456,0.37-0.825,0.826-0.825h17.566c0.456,0,0.825,0.37,0.825,0.825l0,0
					C230.277,186.798,229.908,187.167,229.452,187.167z"/>
				<path style="fill-rule:evenodd;clip-rule:evenodd;fill:#00826F;" d="M262.679,187.167h-17.566c-0.456,0-0.826-0.37-0.826-0.826
					l0,0c0-0.456,0.37-0.825,0.826-0.825h17.566c0.456,0,0.826,0.37,0.826,0.825l0,0
					C263.505,186.798,263.135,187.167,262.679,187.167z"/>
				<path style="fill-rule:evenodd;clip-rule:evenodd;fill:#00826F;" d="M293.771,187.167h-17.566c-0.456,0-0.826-0.37-0.826-0.826
					l0,0c0-0.456,0.37-0.825,0.826-0.825h17.566c0.456,0,0.825,0.37,0.825,0.825l0,0
					C294.596,186.798,294.227,187.167,293.771,187.167z"/>
				<path style="fill-rule:evenodd;clip-rule:evenodd;fill:#303030;" d="M208.545,187.589c-0.227-0.137-0.522-0.29-0.789-0.18
					c-0.205,0.085-0.336,0.409-0.468,0.575c-0.068,0.085-0.15,0.098-0.254,0.056c-0.769-0.31-1.359-0.829-1.783-1.544
					c-0.072-0.111-0.059-0.199,0.028-0.302c0.128-0.153,0.289-0.326,0.324-0.532c0.035-0.206-0.061-0.446-0.145-0.629
					c-0.107-0.234-0.228-0.568-0.46-0.7c-0.213-0.122-0.494-0.054-0.684,0.103c-0.328,0.27-0.486,0.693-0.481,1.112
					c0.001,0.119,0.016,0.238,0.043,0.353c0.066,0.277,0.193,0.535,0.335,0.78c0.107,0.185,0.224,0.365,0.349,0.538
					c0.411,0.565,0.923,1.056,1.516,1.423c0.296,0.183,0.615,0.344,0.945,0.454c0.37,0.124,0.7,0.253,1.1,0.176
					c0.419-0.08,0.832-0.342,0.998-0.751c0.049-0.121,0.074-0.255,0.046-0.383C209.109,187.874,208.756,187.717,208.545,187.589z"/>
				<path style="fill:#303030;" d="M239.873,184.27h-4.253c-0.553,0-1.003,0.455-1.003,1.014v2.512c0,0.826,0.665,1.498,1.482,1.498
					h3.294c0.817,0,1.482-0.672,1.482-1.498v-2.512C240.875,184.725,240.426,184.27,239.873,184.27z M239.706,184.941l-1.633,1.893
					c-0.083,0.097-0.199,0.15-0.326,0.15c-0.127,0-0.243-0.053-0.326-0.15l-1.633-1.893H239.706z M239.394,188.623h-3.294
					c-0.451,0-0.818-0.371-0.818-0.827v-2.421l1.639,1.9c0.208,0.241,0.509,0.38,0.826,0.38c0.317,0,0.618-0.138,0.826-0.38
					l1.639-1.9v2.421C240.212,188.252,239.845,188.623,239.394,188.623z"/>
				<path style="fill:#303030;" d="M269.753,184.27c-1.094,0-1.982,0.897-1.982,2.004c0,0.808,1.056,2.175,1.626,2.854
					c0.186,0.222,0.525,0.222,0.711,0c0.57-0.68,1.626-2.047,1.626-2.854C271.734,185.167,270.847,184.27,269.753,184.27z
					 M269.753,187.117c-0.513,0-0.929-0.422-0.929-0.94c0-0.518,0.417-0.94,0.929-0.94c0.512,0,0.929,0.422,0.929,0.94
					C270.682,186.695,270.265,187.117,269.753,187.117z"/>
			</g>
			<g>
				<path style="fill:#00826F;" d="M270.2,120.909h-9.711c-0.317,0-0.575-0.307-0.575-0.686l0,0c0-0.379,0.257-0.686,0.575-0.686
					h9.711c0.317,0,0.575,0.307,0.575,0.686l0,0C270.775,120.602,270.518,120.909,270.2,120.909z"/>
				
					<line style="fill:none;stroke:#F55571;stroke-width:1.5;stroke-linecap:round;stroke-linejoin:round;stroke-miterlimit:10;" x1="274.227" y1="120.223" x2="274.227" y2="151.969"/>
				<path style="fill:#F55571;" d="M275.258,120.223c0,0.68-0.462,1.231-1.032,1.231s-1.032-0.551-1.032-1.231
					c0-0.68,0.462-1.231,1.032-1.231S275.258,119.543,275.258,120.223z"/>
				<path style="fill:#00826F;" d="M270.2,129.206h-9.711c-0.317,0-0.575-0.307-0.575-0.686l0,0c0-0.379,0.257-0.686,0.575-0.686
					h9.711c0.317,0,0.575,0.307,0.575,0.686l0,0C270.775,128.899,270.518,129.206,270.2,129.206z"/>
				<path style="fill:#F55571;" d="M275.258,128.52c0,0.68-0.462,1.231-1.032,1.231s-1.032-0.551-1.032-1.231
					c0-0.68,0.462-1.232,1.032-1.232S275.258,127.84,275.258,128.52z"/>
				<path style="fill:#00826F;" d="M270.2,137.503h-9.711c-0.317,0-0.575-0.307-0.575-0.686l0,0c0-0.379,0.257-0.686,0.575-0.686
					h9.711c0.317,0,0.575,0.307,0.575,0.686l0,0C270.775,137.196,270.518,137.503,270.2,137.503z"/>
				<path style="fill:#F55571;" d="M275.258,136.817c0,0.68-0.462,1.232-1.032,1.232s-1.032-0.551-1.032-1.232
					s0.462-1.231,1.032-1.231S275.258,136.137,275.258,136.817z"/>
				<path style="fill:#00826F;" d="M270.2,145.8h-9.711c-0.317,0-0.575-0.307-0.575-0.686l0,0c0-0.379,0.257-0.686,0.575-0.686
					h9.711c0.317,0,0.575,0.307,0.575,0.686l0,0C270.775,145.493,270.518,145.8,270.2,145.8z"/>
				<path style="fill:#F55571;" d="M275.258,145.114c0,0.68-0.462,1.232-1.032,1.232s-1.032-0.551-1.032-1.232
					s0.462-1.231,1.032-1.231S275.258,144.434,275.258,145.114z"/>
				<g>
					
						<line style="fill:none;stroke:#303030;stroke-width:1.5;stroke-linecap:round;stroke-linejoin:round;stroke-miterlimit:10;" x1="278.024" y1="120.223" x2="293.365" y2="120.223"/>
					
						<line style="fill:none;stroke:#303030;stroke-width:1.5;stroke-linecap:round;stroke-linejoin:round;stroke-miterlimit:10;" x1="278.024" y1="124.336" x2="284.231" y2="124.336"/>
				</g>
				<g>
					
						<line style="fill:none;stroke:#303030;stroke-width:1.5;stroke-linecap:round;stroke-linejoin:round;stroke-miterlimit:10;" x1="278.024" y1="128.52" x2="293.365" y2="128.52"/>
					
						<line style="fill:none;stroke:#303030;stroke-width:1.5;stroke-linecap:round;stroke-linejoin:round;stroke-miterlimit:10;" x1="278.024" y1="132.633" x2="284.231" y2="132.633"/>
				</g>
				<g>
					
						<line style="fill:none;stroke:#303030;stroke-width:1.5;stroke-linecap:round;stroke-linejoin:round;stroke-miterlimit:10;" x1="278.024" y1="136.817" x2="293.365" y2="136.817"/>
					
						<line style="fill:none;stroke:#303030;stroke-width:1.5;stroke-linecap:round;stroke-linejoin:round;stroke-miterlimit:10;" x1="278.024" y1="140.93" x2="284.231" y2="140.93"/>
				</g>
				<g>
					
						<line style="fill:none;stroke:#303030;stroke-width:1.5;stroke-linecap:round;stroke-linejoin:round;stroke-miterlimit:10;" x1="278.024" y1="145.114" x2="293.365" y2="145.114"/>
					
						<line style="fill:none;stroke:#303030;stroke-width:1.5;stroke-linecap:round;stroke-linejoin:round;stroke-miterlimit:10;" x1="278.024" y1="149.227" x2="284.231" y2="149.227"/>
				</g>
			</g>
			<g>
				<path style="fill:#00826F;" d="M288.577,54.359c0.596,0,1.079,0.483,1.079,1.079c0,0.596-0.483,1.079-1.079,1.079
					c-0.596,0-1.079-0.483-1.079-1.079C287.498,54.842,287.981,54.359,288.577,54.359z"/>
				<path style="fill:#00826F;" d="M291.959,54.359c0.596,0,1.079,0.483,1.079,1.079c0,0.596-0.483,1.079-1.079,1.079
					s-1.079-0.483-1.079-1.079C290.88,54.842,291.363,54.359,291.959,54.359z"/>
				<path style="fill:#00826F;" d="M295.341,54.359c0.596,0,1.079,0.483,1.079,1.079c0,0.596-0.483,1.079-1.079,1.079
					c-0.596,0-1.079-0.483-1.079-1.079C294.262,54.842,294.745,54.359,295.341,54.359z"/>
			</g>
			<g>
				<path style="fill:#F55571;" d="M219.05,159.665h-14.207c-0.57,0-1.031-0.551-1.031-1.231l0,0c0-0.68,0.462-1.231,1.031-1.231
					h14.207c0.57,0,1.031,0.551,1.031,1.231l0,0C220.082,159.114,219.62,159.665,219.05,159.665z"/>
				<path style="fill:#F55571;" d="M247.156,159.665h-23.661c-0.57,0-1.031-0.551-1.031-1.231l0,0c0-0.68,0.462-1.231,1.031-1.231
					h23.661c0.57,0,1.031,0.551,1.031,1.231l0,0C248.188,159.114,247.726,159.665,247.156,159.665z"/>
			</g>
			<g>
				
					<line style="fill:none;stroke:#303030;stroke-width:1.5;stroke-linecap:round;stroke-linejoin:round;stroke-miterlimit:10;" x1="204.141" y1="165.724" x2="293.365" y2="165.724"/>
				
					<line style="fill:none;stroke:#303030;stroke-width:1.5;stroke-linecap:round;stroke-linejoin:round;stroke-miterlimit:10;" x1="204.141" y1="170.036" x2="293.365" y2="170.036"/>
				
					<line style="fill:none;stroke:#303030;stroke-width:1.5;stroke-linecap:round;stroke-linejoin:round;stroke-miterlimit:10;" x1="204.141" y1="174.348" x2="293.365" y2="174.348"/>
				
					<line style="fill:none;stroke:#303030;stroke-width:1.5;stroke-linecap:round;stroke-linejoin:round;stroke-miterlimit:10;" x1="204.141" y1="178.66" x2="254.705" y2="178.66"/>
			</g>
		</g>
	</g>
</g>
<g id="Character_photo">
	<g id="Photo_00000088108524661025893930000017355056655742956431_">
		<g id="Head_00000038380978076701450990000005388372140675564418_">
			<path style="fill:#303030;" d="M210.098,79.695c1.527,7.064,4.23,9.511,8.162,9.514c4.908,0.004,8.604-5.108,8.664-9.499
				c2.666-4.486-0.66-9.22-7.312-8.999c-4.153,0.138-6.866,0.592-8.124,4.189C210.195,75.907,209.686,77.786,210.098,79.695z"/>
			<g>
				<g>
					<path style="fill:#303030;" d="M210.02,74.969c0.086-0.002,0.172,0,0.258,0.006c0.032,0.002,0.098,0.022,0.128,0.012
						c-0.08-0.011-0.092-0.013-0.037-0.005c0.021,0.003,0.042,0.007,0.064,0.011c0.169,0.03,0.335,0.076,0.496,0.137
						c0.02,0.008,0.04,0.015,0.06,0.023c0.05,0.02,0.04,0.016-0.03-0.013c-0.001,0.004,0.107,0.05,0.117,0.055
						c0.077,0.038,0.152,0.08,0.225,0.125c0.023,0.015,0.217,0.123,0.213,0.145c-0.059-0.046-0.067-0.052-0.025-0.019
						c0.017,0.014,0.033,0.027,0.049,0.041c0.033,0.028,0.065,0.057,0.096,0.086c0.192,0.178,0.52,0.204,0.707,0
						c0.178-0.194,0.205-0.517,0-0.707c-0.626-0.581-1.463-0.914-2.32-0.898c-0.261,0.005-0.512,0.227-0.5,0.5
						C209.532,74.736,209.74,74.974,210.02,74.969L210.02,74.969z"/>
				</g>
			</g>
			<g>
				<g>
					<path style="fill:#303030;" d="M210.909,72.484c-0.006,0.935,0.206,1.846,0.597,2.694c0.11,0.238,0.472,0.316,0.684,0.179
						c0.245-0.158,0.297-0.429,0.179-0.684c-0.025-0.053-0.049-0.107-0.072-0.161c0.043,0.1-0.013-0.035-0.017-0.044
						c-0.038-0.096-0.073-0.193-0.105-0.291c-0.062-0.189-0.114-0.381-0.157-0.575c-0.02-0.094-0.038-0.188-0.054-0.282
						c-0.004-0.021-0.028-0.207-0.014-0.086c-0.005-0.044-0.01-0.088-0.015-0.132c-0.021-0.205-0.029-0.411-0.028-0.618
						c0.002-0.262-0.231-0.512-0.5-0.5C211.137,71.997,210.911,72.204,210.909,72.484L210.909,72.484z"/>
				</g>
			</g>
			<path style="fill:#D48983;" d="M213.021,87.523c0.026,1.017,0.401,1.959,1.113,2.673l-0.122,5.668l-2.895,1.467
				c0.833,0.78,5.757,3.773,10.5,3.398c5.651-0.446,3.857-3.988,3.857-3.988l-2.608-1.055l-0.228-2.927
				c1.029-0.042,2.917-0.541,3.786-1.728c1.107-1.514,0.998-2.716,0.884-4.921c-0.075-1.452-0.136-2.69-0.129-3.776
				c0.009-1.47-0.035-1.919-0.12-3.601c-0.124-2.468-1.318-4.021-1.318-4.021c-1.21-1.388-4.455-2.05-7.159-1.141
				c-2.705,0.909-3.489,2.088-3.489,2.088v1.068c0,0.63-0.247,1.234-0.689,1.683l-0.549,0.559c0,0,0.718,1.201,0.718,2.835
				c0,0.806-0.54,1.516-1.038,0.92c-0.667-0.772-1.669-1.429-2.719-1.429c-1.369,0-2.282,0.799-2.461,1.79
				c-0.212,1.175,0.575,2.028,1.527,2.42c0.952,0.392,2.21,0.388,3.084-0.181C212.965,85.321,212.995,86.506,213.021,87.523z"/>
			<path style="fill:#303030;" d="M216.74,76.405c1.201,0.968,2.465,1.406,3.926,1.838c0.681,0.201,2.23,0.719,1.347-0.485
				c-0.53-0.723-1.24-1.163-1.492-2.056c0.799,0.677,1.564,1.264,2.597,1.612c0.854,0.287,2.329,0.671,3.219,0.283
				c1.912-0.832,0.915-3.095-0.114-4.201c-1.473-1.585-3.312-2.153-5.46-2.122c-1.786,0.026-4.382,0.694-5.58,2.1
				C214.113,74.631,215.877,75.709,216.74,76.405z"/>
			<path style="fill:none;stroke:#303030;stroke-linecap:round;stroke-linejoin:round;stroke-miterlimit:10;" d="M218.516,86.555
				c0.822,0.807,2.447,1.184,3.687,0.885"/>
			<g>
				<path style="fill:#303030;" d="M222.639,92.759c-2.192,0.004-4.674-0.396-6.173-1.231c0.429,0.92,2.145,2.348,6.293,2.776
					L222.639,92.759z"/>
				<path style="fill:none;stroke:#303030;stroke-linecap:round;stroke-linejoin:round;stroke-miterlimit:10;" d="M221.321,79.71
					c0.849,1.786,1.04,2.319,1.438,3.224c0.325,0.736,0.329,2.009-1.28,2.564"/>
			</g>
		</g>
		<path style="fill:#303030;" d="M233.754,100.352l-8.305-3.998c0,0-0.341,2.801-4.907,3.076c-4.565,0.275-8.338-1.458-9.164-2.179
			l-7.634,3.681v2.073c0,1.653,1.34,2.993,2.993,2.993h26.689c0.633,0,1.218-0.199,1.701-0.534
			C234.841,103.414,234.41,101.618,233.754,100.352z"/>
		<path style="fill:#F55571;" d="M235.993,104.522c-0.604-2.807-1.535-4.73-2.867-5.272c-1.934-0.787-5.036-1.97-5.036-1.97
			l-1.844-2.25l-3.567-1.762l0.188,2.417c2.036,1.721,5.189,4.245,6.285,8.043c0.203,0.704,0.384,1.467,0.548,2.268h3.726
			C234.523,105.998,235.471,105.402,235.993,104.522z"/>
		<polyline style="fill:none;stroke:#303030;stroke-linecap:round;stroke-linejoin:round;stroke-miterlimit:10;" points="
			226.351,95.175 230.266,99.914 227.194,98.573 		"/>
		<path style="fill:#F55571;" d="M215.277,97.409l-1.203-4.393l-3.892,3.881l0.036,0.383c0,0-0.956,0.233-3.893,1.221
			c-1.091,0.367-1.941,0.67-2.58,0.905v3.599c0,1.653,1.34,2.993,2.993,2.993h10.024C216.3,100.961,215.277,97.409,215.277,97.409z"
			/>
		<polyline style="fill:none;stroke:#303030;stroke-linecap:round;stroke-linejoin:round;stroke-miterlimit:10;" points="
			210.217,97.28 211.645,102.023 213.841,98.814 		"/>
		<g>
			<g>
				<path style="fill:#303030;" d="M210.328,83.894c0.04-0.009,0.079-0.018,0.12-0.025c0.02-0.004,0.04-0.007,0.06-0.01
					c0.054-0.008,0.04-0.006-0.042,0.006c0.065,0.009,0.146-0.013,0.213-0.015c0.082-0.002,0.163,0.001,0.244,0.007
					c0.02,0.002,0.041,0.004,0.061,0.006c0.055,0.006,0.04,0.004-0.042-0.006c0.033,0.01,0.071,0.011,0.105,0.018
					c0.151,0.029,0.296,0.075,0.439,0.128c0.035,0.014,0.019,0.007-0.049-0.021c0.019,0.008,0.037,0.017,0.056,0.025
					c0.037,0.017,0.073,0.036,0.109,0.055c0.072,0.039,0.141,0.081,0.209,0.127c0.217,0.147,0.564,0.049,0.684-0.179
					c0.133-0.253,0.053-0.527-0.179-0.684c-0.655-0.442-1.49-0.573-2.254-0.394c-0.255,0.06-0.43,0.365-0.349,0.615
					C209.799,83.811,210.055,83.958,210.328,83.894L210.328,83.894z"/>
			</g>
		</g>
		<circle style="fill:#303030;" cx="218.163" cy="81.232" r="0.998"/>
		<circle style="fill:#303030;" cx="224.71" cy="81.232" r="0.998"/>
		<path style="fill:none;stroke:#303030;stroke-width:1.5;stroke-linecap:round;stroke-linejoin:round;stroke-miterlimit:10;" d="
			M233.426,105.998h-26.689c-1.653,0-2.993-1.34-2.993-2.993v-32.9c0-1.653,1.34-2.993,2.993-2.993h26.689
			c1.653,0,2.993,1.34,2.993,2.993v32.9C236.419,104.658,235.079,105.998,233.426,105.998z"/>
	</g>
</g>
<g id="Character_2">
	<g id="Character_00000137098099777717145620000016686931196933473944_">
		<g id="Chair_00000130626941912333165180000009563406990894819505_">
			<g>
				
					<path style="fill:#FF95FB;stroke:#303030;stroke-width:1.5;stroke-linecap:round;stroke-linejoin:round;stroke-miterlimit:10;" d="
					M457.176,348.4h12.328l13.512-121.504h-4.704c-4.34,0-7.987,3.263-8.467,7.577L457.176,348.4z"/>
				
					<polygon style="fill:#303030;stroke:#303030;stroke-width:1.5;stroke-linecap:round;stroke-linejoin:round;stroke-miterlimit:10;" points="
					478.395,226.895 483.015,226.895 469.504,348.4 464.884,348.4 				"/>
			</g>
			<g>
				
					<path style="fill:#FF95FB;stroke:#303030;stroke-width:1.5;stroke-linecap:round;stroke-linejoin:round;stroke-miterlimit:10;" d="
					M387.129,337.624h75.805c1.731,0,3.133,1.403,3.133,3.134v4.475h-85.565v-0.981
					C380.502,340.591,383.469,337.624,387.129,337.624z"/>
				
					<rect x="380.591" y="345.232" transform="matrix(-1 -1.224647e-16 1.224647e-16 -1 846.6586 693.6321)" style="fill:#303030;stroke:#303030;stroke-width:1.5;stroke-linecap:round;stroke-linejoin:round;stroke-miterlimit:10;" width="85.477" height="3.167"/>
			</g>
			<g>
				
					<polygon style="fill:#303030;stroke:#303030;stroke-width:1.5;stroke-linecap:round;stroke-linejoin:round;stroke-miterlimit:10;" points="
					464.98,437.146 467.694,437.146 454.366,348.65 446.659,348.65 				"/>
				
					<polygon style="fill:#303030;stroke:#303030;stroke-width:1.5;stroke-linecap:round;stroke-linejoin:round;stroke-miterlimit:10;" points="
					375.095,437.146 372.381,437.146 385.709,348.65 393.416,348.65 				"/>
				
					<rect x="377.116" y="418.457" transform="matrix(-1 -1.224647e-16 1.224647e-16 -1 839.0638 839.4147)" style="fill:#303030;stroke:#303030;stroke-width:1.5;stroke-linecap:round;stroke-linejoin:round;stroke-miterlimit:10;" width="84.832" height="2.501"/>
			</g>
		</g>
		<g id="Character_00000021119460087855685310000007054243152642759809_">
			<g id="Legs_00000099624446331180532660000001286473042007805843_">
				<g id="Leg_00000111880921316549382820000014506433002811589311_">
					<g>
						<path style="fill:#D48983;" d="M327.355,327.324c-1.01-27.951,11.196-35.714,28.956-38.078
							c19.676-2.62,74.105-1.022,74.105-1.022h20.675c6.719,17.862,5.244,41.282-12.867,45.757
							c-10.042,2.481-24.666,1.672-42.554,1.672s-29.535,0.004-29.535,0.004c0.456,13.518-2.841,25.024-4.564,43.703
							c-1.823,19.757-1.975,20.365-1.401,29.962c0.273,4.564,4.951,16.034-1.068,19.589c-0.863,0.51-3.524,1.637-11.534,1.637
							c-8.01,0-38.041-0.318-59.895-0.001c-1.405,0.02-6.514-0.258-6.514-1.636c0-3.879,5.319-6.323,11.336-9.118
							c6.639-3.083,12.27-5.749,19.698-9.302c5.551-2.655,8.675-3.951,14.25-8.203c4.5-3.432,4.393-6.838,4.45-18.845
							C330.968,368.23,328.142,349.077,327.355,327.324z"/>
					</g>
					<g>
						<path style="fill:#303030;" d="M360.659,384.268c2.407,0.447,2.919,2.758,2.126,8.109c-2.006,13.538-0.033,19.98,0.111,23.227
							c0.144,3.247,3.234,12.587-3.215,16.459c-3,1.802-21.141,1.237-35.376,1.506c-14.235,0.268-31.324,0.179-36.896,0
							c-8.608-0.277-8.589-7.16-3.746-10.102c5.236-3.181,13.738-7.563,23.298-11.805c11.725-5.203,17.416-8.676,20.64-12.04
							c1.798-1.876,0.911-7.493,1.244-11.576c0.141-1.725-0.544-4.028,2.05-4.603c0.169,0.995,0.292,2.02,0.372,3.073
							c0,0,1.629,4.599,14.474,4.617c12.422,0.017,14.679-3.711,14.679-3.711L360.659,384.268z"/>
						<g>
							<g>
								<path style="fill:#FFFFFF;" d="M290.03,418.256c6.719-3.24,22.314-10.261,28.346-13.319
									c6.033-3.058,7.896-8.983,17.122-8.305c7.466,0.549,10.056,4.731,11.103,5.573c1.947,1.565,4.801,4.976,9.347,4.82
									c4.511-0.155,5.901-5.386,5.901-5.386l0.372-4.64c3.794,1.453,3.322,2.921,2.884,5.762
									c-0.385,2.493-0.154,6.91,0.195,10.517c0.396,4.099,0.783,8.51,0.838,15.631c-0.744,5.043-5.821,5.965-13.665,5.956
									c-10.091-0.012-44.184-0.051-44.184-0.051c-7.235-0.009-18.438-0.022-22.807-0.027c-4.369-0.005-7.686-3.539-7.686-5.056
									C277.793,424.248,281.087,422.568,290.03,418.256z"/>
								<g>
									<path style="fill:#303030;" d="M290.408,418.904c6.063-2.921,12.203-5.685,18.304-8.525
										c2.869-1.335,5.738-2.672,8.579-4.066c1.246-0.611,2.474-1.229,3.611-2.032c1.225-0.865,2.35-1.855,3.486-2.831
										c2.295-1.972,4.725-3.623,7.802-4.011c3.599-0.454,7.545,0.27,10.581,2.305c0.878,0.589,1.657,1.299,2.386,2.063
										c0.582,0.61,1.19,1.147,1.821,1.709c2.605,2.322,5.584,4.575,9.292,4.239c2.854-0.258,4.878-2.389,5.94-4.917
										c0.645-1.536,0.556-3.28,0.688-4.92c0.025-0.307,0.049-0.613,0.074-0.92c-0.316,0.241-0.633,0.482-0.949,0.723
										c0.917,0.358,2.178,0.858,2.521,1.885c0.291,0.874-0.001,1.93-0.138,2.807c-0.491,3.167-0.234,6.46,0.034,9.636
										c0.23,2.725,0.512,5.443,0.674,8.174c0.096,1.622,0.164,3.245,0.209,4.869c0.026,0.947,0.045,1.893,0.056,2.84
										c0.009,0.704-0.02,1.303-0.246,1.973c-0.657,1.953-2.468,2.954-4.353,3.465c-2.745,0.744-5.672,0.747-8.495,0.744
										c-3.68-0.004-7.361-0.008-11.041-0.013c-4.787-0.006-9.574-0.011-14.361-0.017c-4.237-0.005-8.475-0.01-12.712-0.015
										c-1.953-0.002-3.905-0.005-5.857-0.007c-5.755-0.007-11.509-0.014-17.264-0.02c-1.249-0.001-2.497-0.003-3.746-0.004
										c-1.158-0.001-2.341,0.072-3.476-0.189c-1.336-0.307-2.611-0.946-3.65-1.843c-0.643-0.555-1.457-1.334-1.627-2.189
										c-0.008-0.038-0.008-0.276-0.002-0.473c0.008-0.265,0.023-0.53,0.052-0.793c0.049-0.452,0.142-0.9,0.275-1.335
										c0.24-0.784,0.649-1.512,1.187-2.131c1.525-1.753,3.721-2.87,5.753-3.92C287.332,420.384,288.871,419.645,290.408,418.904
										c0.869-0.419,0.109-1.713-0.757-1.295c-2.824,1.362-5.763,2.656-8.351,4.446c-1.705,1.179-3.189,2.648-3.839,4.663
										c-0.307,0.952-0.469,2.047-0.417,3.048c0.052,0.984,0.678,1.855,1.314,2.563c1.939,2.158,4.723,3.206,7.581,3.21
										c5.934,0.007,11.869,0.014,17.803,0.021c2.629,0.003,5.258,0.006,7.886,0.009c3.956,0.005,7.912,0.009,11.869,0.014
										c4.993,0.006,9.987,0.012,14.98,0.017c4.162,0.005,8.324,0.01,12.486,0.014c2.597,0.003,5.201,0.019,7.78-0.328
										c2.309-0.31,4.858-0.922,6.501-2.702c0.733-0.794,1.237-1.775,1.49-2.824c0.202-0.838,0.146-1.681,0.132-2.537
										c-0.015-0.958-0.038-1.915-0.068-2.872c-0.097-3.017-0.288-6.029-0.559-9.035c-0.3-3.325-0.65-6.652-0.577-9.996
										c0.029-1.355,0.242-2.657,0.41-3.997c0.123-0.984,0.119-2.03-0.442-2.891c-0.728-1.118-2.014-1.688-3.211-2.156
										c-0.491-0.192-0.915,0.288-0.949,0.723c-0.074,0.918-0.147,1.835-0.221,2.753c-0.043,0.533-0.085,1.066-0.128,1.598
										c-0.008,0.095-0.013,0.19-0.023,0.285c0.021-0.211,0.054-0.218-0.014-0.058c-0.328,0.775-0.57,1.462-1.078,2.223
										c-0.725,1.087-1.757,1.986-3.039,2.325c-3.452,0.913-6.538-1.537-8.93-3.67c-1.422-1.268-2.69-2.727-4.252-3.83
										c-2.945-2.078-6.698-2.905-10.262-2.788c-3.303,0.109-6.167,1.322-8.741,3.344c-2.283,1.793-4.299,3.85-6.918,5.175
										c-2.566,1.299-5.175,2.514-7.78,3.733c-6.25,2.926-12.537,5.773-18.774,8.726c-0.554,0.262-1.107,0.526-1.66,0.792
										C288.782,418.028,289.542,419.322,290.408,418.904z"/>
								</g>
							</g>
							<g>
								
									<path style="fill:none;stroke:#303030;stroke-width:1.5;stroke-linecap:round;stroke-linejoin:round;stroke-miterlimit:10;" d="
									M335.964,411.249c-5.639-5.639-12.107-10.156-17.388-7.241"/>
								
									<path style="fill:none;stroke:#303030;stroke-width:1.5;stroke-linecap:round;stroke-linejoin:round;stroke-miterlimit:10;" d="
									M326.72,415.722c-5.639-5.639-12.107-10.156-17.388-7.241"/>
								
									<path style="fill:none;stroke:#303030;stroke-width:1.5;stroke-linecap:round;stroke-linejoin:round;stroke-miterlimit:10;" d="
									M317.062,420.196c-5.639-5.639-12.107-10.156-17.388-7.242"/>
							</g>
							
								<path style="fill:none;stroke:#303030;stroke-width:1.5;stroke-linecap:round;stroke-linejoin:round;stroke-miterlimit:10;" d="
								M365.298,413.279c-12.181,1.982-18.223,11.707-18.223,20.46"/>
							
								<path style="fill:#FFFFFF;stroke:#303030;stroke-width:1.5;stroke-linecap:round;stroke-linejoin:round;stroke-miterlimit:10;" d="
								M280.781,436.468c3.883,0.727,25.344,0.641,25.344,0.641s35.692,0.029,43.857,0.035c8.165,0.006,12.51-0.169,14.595-2.158
								c1.229-1.173,1.909-3.059,1.56-6.076c-3.395,2.065-2.529,2.653-16.479,2.641c-13.95-0.011-47.995,0.036-55.39-0.044
								c-5.15-0.056-13.155,0.416-16.474-2.029C276.573,430.599,274.859,435.359,280.781,436.468z"/>
						</g>
					</g>
					<path style="fill:#303030;" d="M330.032,368.856l0.532,8.726c5.768,4.053,20.172,5.847,31.008,1.777l0.996-8.188
						C351.733,375.241,335.801,372.909,330.032,368.856z"/>
				</g>
				<g id="Leg_00000133530356361894457650000012634858700464184240_">
					<g>
						<path style="fill:#D48983;" d="M340.323,303.159c15.341-18.787,19.795-20.643,38.402-20.643c19.849,0,43.128,0,43.128,0
							v51.172c-24.471,0-53.777,0.108-53.777,0.108c-7.784,11.061-21,19.72-38.141,33.628
							c-15.407,12.501-16.227,14.005-21.553,22.01c-2.533,3.806-5.714,15.778-12.659,14.987c-0.996-0.114-3.799-0.818-10.19-5.646
							c-6.391-4.828-30.162-23.183-47.791-36.103c-1.133-0.83-5.042-4.132-4.212-5.232c2.339-3.096,8.056-1.84,14.541-0.442
							c7.156,1.542,13.255,2.809,21.324,4.451c6.03,1.227,9.303,2.076,16.314,2.044c5.659-0.026,7.627-2.809,14.91-12.355
							C300.618,351.137,326.556,320.018,340.323,303.159z"/>
					</g>
					<g>
						<path style="fill:#303030;" d="M322.077,373.924c1.651,1.807,0.352,3.343-1.104,4.592
							c-9.056,7.77-12.364,14.894-14.206,17.571c-1.842,2.678-5.006,11.993-12.486,11.196c-3.48-0.371-17.615-11.755-29.134-20.121
							c-11.52-8.366-25.103-18.738-29.441-22.239c-6.702-5.41-2.538-10.89,3.1-10.319c6.095,0.618,15.521,2.246,25.706,4.623
							c12.492,2.916,19.126,3.575,23.726,2.834c2.566-0.413,5.492-5.205,8.117-9.278c0.938-1.455,1.847-2.752,4.263-1.646
							l-2.055,2.691c0,0-0.417,4.446,8.569,13.626c8.358,8.538,13.304,7.888,13.304,7.888L322.077,373.924z"/>
						<g>
							<g>
								<path style="fill:#FFFFFF;" d="M247.027,354.284c7.314,1.465,23.99,5.262,30.646,6.458
									c6.657,1.196,11.715-2.409,18.668,3.693c5.627,4.939,5.172,9.836,5.501,11.14c0.61,2.422,0.832,6.865,4.552,9.479
									c3.693,2.595,8.457-0.826,8.457-0.826l2.788-2.639c1.843,2.329,0.694,3.579-1.369,5.581
									c-1.81,1.757-4.288,5.421-6.184,8.509c-2.154,3.51-4.504,7.262-8.753,12.978c-3.633,3.576-8.24,1.251-14.494-3.485
									c-8.045-6.092-35.225-26.673-35.225-26.673c-5.768-4.368-14.699-11.131-18.183-13.768c-3.483-2.638-4-7.457-3.086-8.668
									C233.651,351.69,237.292,352.335,247.027,354.284z"/>
								<g>
									<path style="fill:#303030;" d="M246.827,355.008c6.006,1.205,11.983,2.558,17.971,3.849
										c3.038,0.655,6.076,1.307,9.122,1.923c2.779,0.562,5.483,1.073,8.337,0.945c3.203-0.144,6.407-0.587,9.472,0.639
										c1.946,0.778,3.666,2.107,5.127,3.59c1.302,1.322,2.409,2.858,3.123,4.578c0.794,1.912,0.87,3.916,1.289,5.91
										c0.628,2.989,1.243,6.015,3.515,8.247c1.266,1.244,2.818,2.04,4.612,2.088c1.498,0.04,2.973-0.405,4.317-1.038
										c1.543-0.727,2.595-1.854,3.824-3.018c0.211-0.2,0.422-0.399,0.633-0.599c-0.393-0.051-0.785-0.101-1.178-0.152
										c0.399,0.52,0.871,1.152,0.82,1.848c-0.047,0.637-0.502,1.186-0.91,1.643c-0.965,1.08-2.016,2.038-2.914,3.181
										c-1.965,2.5-3.639,5.199-5.311,7.898c-1.444,2.331-2.936,4.631-4.498,6.885c-0.996,1.438-2.017,2.858-3.055,4.265
										c-0.717,0.972-1.745,1.655-2.94,1.883c-2.601,0.497-5.328-1.18-7.405-2.521c-1.945-1.256-3.771-2.684-5.615-4.08
										c-3.184-2.411-6.368-4.822-9.552-7.233c-6.773-5.129-13.546-10.258-20.319-15.386c-6.189-4.686-12.378-9.373-18.567-14.06
										c-1.865-1.413-3.926-2.674-5.05-4.801c-0.522-0.987-0.879-2.108-0.958-3.226c-0.059-0.835-0.011-1.474,0.469-2.061
										c1.082-1.323,2.411-2.237,4.11-2.542c2.186-0.393,4.537,0.043,6.695,0.419
										C243.607,354.361,245.217,354.685,246.827,355.008c0.943,0.189,1.346-1.257,0.399-1.446
										c-3.004-0.601-6.042-1.292-9.107-1.489c-1.94-0.125-3.961,0.036-5.674,1.035c-1.562,0.911-3.1,2.411-3.233,4.289
										c-0.176,2.482,0.968,5.124,2.636,6.914c0.793,0.851,1.787,1.51,2.711,2.21c1.023,0.774,2.045,1.549,3.068,2.323
										c2.496,1.89,4.993,3.781,7.489,5.671c2.557,1.936,5.113,3.872,7.67,5.808c2.722,2.061,5.444,4.123,8.167,6.184
										c3.831,2.901,7.663,5.802,11.494,8.704c3.535,2.677,7.07,5.354,10.605,8.031c1.427,1.081,2.845,2.174,4.286,3.237
										c2.516,1.856,5.351,3.926,8.493,4.517c1.193,0.224,2.442,0.215,3.59-0.216c0.57-0.214,1.102-0.5,1.59-0.865
										c0.703-0.526,1.175-1.151,1.691-1.854c1.942-2.644,3.814-5.339,5.589-8.098c1.609-2.502,3.109-5.073,4.784-7.533
										c0.929-1.364,1.892-2.718,2.989-3.953c0.962-1.083,2.233-2.002,2.886-3.326c0.689-1.396,0.237-2.763-0.665-3.939
										c-0.295-0.385-0.793-0.516-1.178-0.152c-0.625,0.591-1.25,1.183-1.874,1.774c-0.273,0.258-0.646,0.518-0.869,0.822
										c-0.103,0.141,0.221-0.131,0.05-0.035c-0.111,0.062-0.215,0.142-0.324,0.208c-2.337,1.438-5.392,2.178-7.7,0.29
										c-2.47-2.02-3.051-5.064-3.665-8.019c-0.05-0.242-0.111-0.482-0.163-0.724c-0.014-0.065-0.027-0.13-0.04-0.195
										c-0.036-0.182-0.001,0.014-0.015-0.101c-0.048-0.383-0.082-0.767-0.131-1.149c-0.157-1.227-0.418-2.431-0.867-3.587
										c-1.404-3.616-4.294-6.734-7.666-8.619c-2.943-1.645-6.121-1.841-9.413-1.632c-1.584,0.1-3.169,0.222-4.756,0.132
										c-1.293-0.074-2.558-0.339-3.826-0.587c-2.828-0.553-5.646-1.153-8.464-1.757c-6.162-1.32-12.313-2.699-18.484-3.978
										c-0.559-0.116-1.118-0.23-1.677-0.342C246.283,353.372,245.88,354.818,246.827,355.008z"/>
								</g>
							</g>
							<g>
								
									<path style="fill:none;stroke:#303030;stroke-width:1.5;stroke-linecap:round;stroke-linejoin:round;stroke-miterlimit:10;" d="
									M287.903,376.38c-1.101-7.898-3.539-15.401-9.509-16.259"/>
								
									<path style="fill:none;stroke:#303030;stroke-width:1.5;stroke-linecap:round;stroke-linejoin:round;stroke-miterlimit:10;" d="
									M277.83,374.378c-1.1-7.899-3.539-15.401-9.51-16.259"/>
								
									<path style="fill:none;stroke:#303030;stroke-width:1.5;stroke-linecap:round;stroke-linejoin:round;stroke-miterlimit:10;" d="
									M267.427,372.126c-1.101-7.898-3.539-15.401-9.509-16.259"/>
							</g>
							
								<path style="fill:none;stroke:#303030;stroke-width:1.5;stroke-linecap:round;stroke-linejoin:round;stroke-miterlimit:10;" d="
								M310.086,395.681c-10.914-5.761-21.597-1.642-26.873,5.341"/>
							
								<path style="fill:#FFFFFF;stroke:#303030;stroke-width:1.5;stroke-linecap:round;stroke-linejoin:round;stroke-miterlimit:10;" d="
								M228.67,363.241c2.66,2.92,19.837,15.788,19.837,15.788s28.462,21.536,34.973,26.463c6.511,4.926,10.084,7.406,12.947,7.075
								c1.688-0.195,3.367-1.29,4.907-3.908c-3.954-0.398-3.617,0.592-14.742-7.825c-11.124-8.417-38.318-28.9-44.17-33.422
								c-4.076-3.149-10.748-7.597-11.922-11.549C228.849,356.022,224.613,358.788,228.67,363.241z"/>
						</g>
					</g>
					<path style="fill:#303030;" d="M310.347,338.348l-5.645,6.853c2.026,7.24,12.575,20.669,22.946,25.03l7.857-5.899
						C323.92,359.448,312.373,345.588,310.347,338.348z"/>
					<path style="fill:#00826F;" d="M424.009,279.272c-14.706,0-53.571,0.512-62.797,1.763c-9.225,1.251-17.114,3.216-26.863,19.06
						c-9.55,15.52-13.479,19.081-19.864,24.176c-2.55,2.035-6.365,6.256-4.089,14.554c1.741,6.346,13.377,23.249,25.108,25.508
						c11.731,2.258,12.977-4.304,15.252-8.873c2.931-5.885,17.909-19.79,17.909-19.79h55.344V279.272z"/>
					
						<path style="fill:none;stroke:#303030;stroke-width:1.5;stroke-linecap:round;stroke-linejoin:round;stroke-miterlimit:10;" d="
						M334.349,300.094c-9.55,15.52-13.479,19.081-19.864,24.176c-2.55,2.035-6.565,5.614-4.785,14.862"/>
				</g>
				<path style="fill:#00826F;" d="M325.835,350.111c0.28-6.686,0.237-19.708-0.32-29.711c-0.558-10.003,0.959-21.7,11.906-28.503
					c11.875-7.379,36.218-5.794,59.255-6.853c5.688-7.508,10.857-16.061,10.857-16.061h52.38
					c0.877,14.864,9.022,68.088-34.987,68.088c-20.661,0-22.365,0-22.365,0c-11.344,0-33.452,0-33.452,0s-0.147,3.008-0.924,13.551
					c-0.681,9.247,3.947,13.872-5.617,20.548c-10.836,4.07-26.769,1.738-32.537-2.315
					C321.965,360.639,325.555,356.797,325.835,350.111z"/>
				<path style="fill:none;stroke:#303030;stroke-width:1.5;stroke-linecap:round;stroke-linejoin:round;stroke-miterlimit:10;" d="
					M330.032,368.856c-8.067-8.217-4.477-12.059-4.197-18.745c0.28-6.686,0.237-19.708-0.32-29.711
					c-0.558-10.003,0.959-21.7,11.906-28.503c11.875-7.379,36.218-5.794,59.255-6.853"/>
				<path style="fill:none;stroke:#303030;stroke-width:1.5;stroke-linecap:round;stroke-linejoin:round;stroke-miterlimit:10;" d="
					M362.569,312.343c5.001,6.447,6.541,12.532,6.541,24.729"/>
			</g>
			<g id="Head_00000037680273899840383930000015715803983469990574_">
				<path style="fill:#303030;" d="M410.079,155.561c4.26,5.876,9.935,11.182,16.601,14.195c3.587,1.621,7.619,2.567,11.547,1.852
					c7.312-9.68,13.679-17.875,14.683-28.671c0.467-5.019-1.519-9.413-4.671-11.537c-6.537-13.588-26.384-12.66-35.424-10.215
					c-5.441,1.471-8.064,3.351-8.687,9.093c-0.569,5.239-0.623,8.092,0.646,14.294C405.57,148.464,407.732,152.324,410.079,155.561z
					"/>
				<path style="fill:#303030;" d="M446.447,131.456c1.926-2.225,4.695-3.641,7.643-3.808c0.341-0.019,0.665,0.164,0.722,0.525
					c0.049,0.311-0.183,0.702-0.525,0.722c-2.115,0.12-4.15,0.926-5.761,2.28c1.713-0.454,3.57-0.223,5.128,0.734
					c0.291,0.178,0.329,0.621,0.139,0.882c-0.214,0.294-0.59,0.318-0.882,0.139c-1.614-0.991-3.837-0.994-5.442,0.025
					c-0.288,0.183-0.655,0.197-0.888-0.089c-0.135-0.165-0.17-0.434-0.09-0.648C446.29,132.024,446.209,131.731,446.447,131.456z"/>
				<path style="fill:#D48983;" d="M444.251,181.903l-6.023-10.294c-2.812,0.825-6.978-0.142-9.356-3.895
					c-2.379-3.752-2.652-8.157-2.652-8.157s2.122-4.777,2.831-7.09c0,0-0.601-0.98-1.701-2.676c-2.39,1.888-2.282,3.786-3.505,4.249
					c-1.646,0.623-3.849-4.063-0.587-10.151c1.854-3.946-3.327-15.001-12.307-15.001c-3.699,0.57-6.911,4.265-8.332,7.275
					c-1.421,3.01-1.959,6.169-2.044,8.787c-0.127,3.898,0.041,4.861-0.029,7.915c-0.067,2.92-0.38,5.331-0.826,8.764
					c-0.759,5.844,0.165,8.991,2.561,11.24c2.59,2.431,7.292,3.117,9.841,3.321c2.549,0.204,3.557,0.485,5.397,0.193l1.912,8.494
					l-8.549,9.594C426.472,197.837,435.14,189.496,444.251,181.903z"/>
				<g>
					
						<path style="fill:#D48983;stroke:#303030;stroke-width:2;stroke-linecap:round;stroke-linejoin:round;stroke-miterlimit:10;" d="
						M426.454,150.509c1.526-1.778,4.47-2.923,7.72-1.61c2.935,1.185,4.45,4.22,3.925,7.136c-0.519,2.883-2.835,4.835-5.393,5.572
						c-3.126,0.9-5.459-0.235-7.169-1.603"/>
					<g>
						<path style="fill:none;stroke:#303030;stroke-width:2;stroke-linecap:round;stroke-linejoin:round;stroke-miterlimit:10;" d="
							M433.718,155.247c-0.385-1.415-1.444-2.308-2.707-2.284c-1.263,0.025-2.689,0.967-3.646,2.408"/>
						<path style="fill:none;stroke:#303030;stroke-width:2;stroke-linecap:round;stroke-linejoin:round;stroke-miterlimit:10;" d="
							M430.984,156.054c-0.132-0.646-0.486-1.125-0.913-1.451c-0.427-0.326-0.956-0.479-1.461-0.576"/>
					</g>
				</g>
				<g>
					<g>
						<g>
							<path style="fill:#FFFFFF;" d="M413.996,148.872c0,0-1.271-1.074-2.955-2.047c-1.283-0.741-3.428-1.141-4.056-1.011
								c-0.456,1.387-0.328,2.518-0.092,3.189C408.058,150.589,411.194,150.193,413.996,148.872z"/>
						</g>
						<path style="fill:#303030;" d="M406.299,148.299c0.215,1.204,1.148,1.956,2.086,1.68c0.937-0.276,1.523-1.476,1.308-2.679
							c-0.215-1.204-1.149-1.956-2.086-1.68C406.67,145.896,406.085,147.096,406.299,148.299z"/>
						<polygon style="fill:#FFFFFF;" points="409.919,147.846 407.996,147.799 409.641,148.999 						"/>
						<path style="fill:none;stroke:#303030;stroke-width:2;stroke-linecap:round;stroke-linejoin:round;stroke-miterlimit:10;" d="
							M406.985,145.813c1.874,0.027,5.155,1.295,7.011,3.058"/>
					</g>
					
						<path style="fill:#D48983;stroke:#303030;stroke-width:2;stroke-linecap:round;stroke-linejoin:round;stroke-miterlimit:10;" d="
						M401.434,157.859c-2.364-0.56-6.445-2.264-5.534-4.896c0.482-1.39,5.678-2.65,6.664-8.67"/>
					<path style="fill:none;stroke:#303030;stroke-width:2;stroke-linecap:round;stroke-linejoin:round;stroke-miterlimit:10;" d="
						M405.507,140.885c4.23,0.474,8.09,2.864,10.052,5.258"/>
					<path style="fill:none;stroke:#303030;stroke-width:2;stroke-linecap:round;stroke-linejoin:round;stroke-miterlimit:10;" d="
						M402.565,162.967c1.18,0.37,4.629-0.053,5.884-1.32"/>
				</g>
				<path style="fill:#303030;" d="M421.577,172.388l-4.058,3.995c-5.096,1.029-7.383-0.126-11.025-1.233
					C412.968,176.001,421.576,172.388,421.577,172.388z"/>
				<path style="fill:#303030;" d="M431.395,130.12c-3.106-6.996-4.423-10.327-4.423-10.327c-14.478-0.654-19.987,1.584-23.228,4.52
					c-1.444,1.309-3,6.629,3.224,13.555c2.115,2.354,5.173,4.154,8.661,5.121c0.878,0.243,1.645-0.626,1.222-1.382
					c-0.613-1.095-1.007-2.223-1.177-3.196c1.791,2.701,4.857,4.52,8.16,5.326c3.303,0.806,6.831,0.665,10.218,0.037
					c0.47-0.087,0.988-0.213,1.259-0.588c0.363-0.501,0.099-1.173-0.26-1.659C432.591,138.194,433.043,133.832,431.395,130.12z"/>
			</g>
			<g id="Arm_00000175302440798513705980000003204400697216093062_">
				<path style="fill:#AD6163;" d="M357.115,246.847c-2.193,0-8.032-2.195-15.812-4.051c-5.396-1.287-8.22,0.367-11.294,2.502
					c-3.517,2.443-6.32,5.974-8.149,8.377c-1.489,1.957-1.277,4.539-0.414,6.712c1.09,2.746,2.878,5.794,5.97,6.446
					c1.717,0.362,3.154-0.529,3.09-2.356c0.688,2.271,4.438,4.353,6.303,2.406c0.241-0.251,0.527-0.605,0.671-0.918
					c0.103-0.224,0.067-0.714,0.175-0.873c0.262-0.387,0.212-0.236,0.698-0.192c2.275,0.207,4.449,0.702,6.725,1.022
					c1.633,0.23,3.322,0.094,4.966,0.169c4.895,0.222,21.96,0,21.96,0s12.63,0.504,19.939,0c7.308-0.504,11.582-6.403,14.799-13.986
					c3.722-8.773,9.571-23.04,9.571-23.04l-12.761-33.826c-9.582,6.532-11.786,25.319-16.156,46.88
					C387.393,242.119,361.811,246.847,357.115,246.847z"/>
				
					<path style="fill:#FFFFFF;stroke:#303030;stroke-width:2;stroke-linecap:round;stroke-linejoin:round;stroke-miterlimit:10;" d="
					M404.778,192.399c-7.457,3.573-10.835,7.579-13.206,19.538c-3.263,16.453-5.904,28.651-5.904,28.651l-30.051,4.353
					c1.101,6.148,1.219,14.085,0.54,21.914c0,0,28.363,0,35.765,0c9.289,0,12.799-5.236,15.973-13.179
					c3.174-7.943,10.502-25.483,10.502-25.483L404.778,192.399z"/>
				
					<path style="fill:#FFFFFF;stroke:#303030;stroke-width:2;stroke-linecap:round;stroke-linejoin:round;stroke-miterlimit:10;" d="
					M361.432,244.099c1.303,6.929,1.384,16.209,0.455,22.756"/>
			</g>
			<g id="Chest_00000166665986337855195250000000167746017114908056_">
				
					<path style="fill:#FFFFFF;stroke:#303030;stroke-width:2;stroke-linecap:round;stroke-linejoin:round;stroke-miterlimit:10;" d="
					M395.457,226.895c-0.625,10.108,0.148,22.204-0.621,34.018c-0.859,13.196-2.047,17.61,1.842,19.265
					c3.889,1.655,39.64,11.186,64.011-0.907c4.196-3.889,0.318-9.345,0.385-18.9c0.067-9.555,2.488-22.743,4.029-34.781
					c1.593-12.443,0.003-18.261-3.584-23.99c-4.741-7.574-7.366-10.452-14.378-19.307c-13.802,7.717-31.636,6.43-31.636,6.43
					l0.159-3.999c0,0-5.493,3.475-10.885,7.674C396.677,203.74,396.677,207.158,395.457,226.895z"/>
				
					<path style="fill:#FFFFFF;stroke:#303030;stroke-width:2;stroke-linecap:round;stroke-linejoin:round;stroke-miterlimit:10;" d="
					M415.504,188.723c0,0,7.03-2.36,14.656-6.476c7.084-3.822,9.335-5.611,10.978-7.362l6.001,7.407
					c-6.428,9.022-20.751,14.738-20.751,14.738c-4.854-5.391-6.011-6.394-9.328-5.161"/>
				<path style="fill:none;stroke:#303030;stroke-width:2;stroke-linecap:round;stroke-linejoin:round;stroke-miterlimit:10;" d="
					M415.504,188.723"/>
				<path style="fill:none;stroke:#303030;stroke-width:2;stroke-linecap:round;stroke-linejoin:round;stroke-miterlimit:10;" d="
					M415.504,188.723c-0.367,5.416-1.459,6.187-4.037,10.021c-2.578,3.834-7.876,9.477-8.902,25.659
					c-1.327,20.914-0.121,41.234,0,56.89"/>
				
					<path style="fill:#FFFFFF;stroke:#303030;stroke-width:2;stroke-linecap:round;stroke-linejoin:round;stroke-miterlimit:10;" d="
					M411.467,198.745c2.578-3.834,3.669-4.605,4.037-10.021l1.839-0.89l2.087-2.956l-0.902-4.006c0,0-3.997,2.278-7.345,4.584
					c-2.551,1.757-3.555,2.588-3.228,4.443l2.185-1.391C410.14,188.507,414.035,192.016,411.467,198.745z"/>
			</g>
			<g id="Arm_00000131332038193719940810000002589657482537060240_">
				<g id="Arm_00000042700604915741196590000009397784336355046534_">
					<path style="fill:#D48983;" d="M378.871,269.551c11.187,0,17.546-0.214,26.802-1.005c6.992-0.598,10.54-4.056,17.753-11.077
						c7.661-7.458,14.324-16.993,17.193-19.144v-38.818c0,0-5.135,1.474-8.377,3.391c-6.027,3.563-6.907,6.141-17.912,21.496
						c-9.497,13.251-13.052,18.043-13.052,18.043s-13.518,3.352-22.892,5.116c-8.195,1.542-15.027,2.779-19.123,2.19
						c-4.096-0.589-12.497-2.965-15.76-3.055c-3.263-0.09-10.979,3.391-13.82,5.577c-2.842,2.186-3.907,5.73-4.228,8.581
						c-0.32,2.851,1.231,3.608,2.805,3.532c-0.169,2.747,1.485,3.362,3.656,3.569c0.169,2.218,2.018,3.138,3.982,2.568
						c1.397,1.666,3.598,1.015,4.302-1.489c0.427-1.52,2.926-2.294,9.236-0.61c2.495,0.666,3.936,2.008,10.718,1.662
						C366.936,269.732,367.684,269.551,378.871,269.551z"/>
					<g>
						<path style="fill:none;stroke:#303030;stroke-width:2;stroke-linecap:round;stroke-linejoin:round;stroke-miterlimit:10;" d="
							M337.387,253.676c-2.347,0.94-5.597,2.591-6.673,4.241c-1.076,1.65-2.368,3.315-2.455,6.461"/>
						<path style="fill:none;stroke:#303030;stroke-width:2;stroke-linecap:round;stroke-linejoin:round;stroke-miterlimit:10;" d="
							M331.915,267.947c-0.049-2.555,1.303-5.582,2.169-6.497c1.911-2.022,5.815-3.85,5.815-3.85"/>
						<path style="fill:none;stroke:#303030;stroke-width:2;stroke-linecap:round;stroke-linejoin:round;stroke-miterlimit:10;" d="
							M342.033,261.668c-2.057,0.868-4.617,2.457-5.338,3.541c-0.721,1.083-0.954,3.398-0.798,5.306"/>
					</g>
				</g>
				
					<path style="fill:#FFFFFF;stroke:#303030;stroke-width:2;stroke-linecap:round;stroke-linejoin:round;stroke-miterlimit:10;" d="
					M443.499,196.057c-10.621,1.259-16.886,7.095-25.076,19.891c-8.19,12.796-17.147,26.488-17.147,26.488l-32.167,6.829
					c0,0,2.584,3.382,3.741,9.761c1.12,6.177,0.509,10.584,0.509,10.584s14.671,0.174,21.742,0
					c7.071-0.174,13.771,1.325,20.402-3.519s32.735-32.726,32.735-32.726"/>
				<path style="fill:none;stroke:#303030;stroke-width:2;stroke-linecap:round;stroke-linejoin:round;stroke-miterlimit:10;" d="
					M375.556,247.897c3.842,4.378,5.054,15.301,4.319,21.582"/>
			</g>
		</g>
	</g>
	<g id="Table_00000137091804634140168470000016513982016785448104_">
		<g>
			<path style="fill:#FF95FB;" d="M382.74,275.289H171.103v-0.243c0-3.259,2.642-5.901,5.901-5.901H376.84
				c3.259,0,5.901,2.642,5.901,5.901V275.289z"/>
			<path style="fill:none;stroke:#303030;stroke-width:1.5;stroke-linecap:round;stroke-linejoin:round;stroke-miterlimit:10;" d="
				M287.4,269.145c-3.393,0-6.144,2.751-6.144,6.144"/>
			<rect x="171.103" y="275.289" style="fill:#303030;" width="211.637" height="3.103"/>
		</g>
		<g>
			<path style="fill:none;stroke:#303030;stroke-width:1.5;stroke-linecap:round;stroke-linejoin:round;stroke-miterlimit:10;" d="
				M363.834,437.319l-8.221-150.171c-0.316-5.781-5.097-10.307-10.887-10.307h-21.293c-5.79,0-10.571,4.526-10.887,10.307
				l-8.221,150.171"/>
			
				<line style="fill:none;stroke:#303030;stroke-width:1.5;stroke-linecap:round;stroke-linejoin:round;stroke-miterlimit:10;" x1="362.646" y1="418.193" x2="305.372" y2="418.193"/>
		</g>
		<g>
			<path style="fill:none;stroke:#303030;stroke-width:1.5;stroke-linecap:round;stroke-linejoin:round;stroke-miterlimit:10;" d="
				M246.798,437.319l-8.221-150.171c-0.316-5.781-5.097-10.307-10.887-10.307h-21.293c-5.79,0-10.57,4.526-10.887,10.307
				l-8.221,150.171"/>
			
				<line style="fill:none;stroke:#303030;stroke-width:1.5;stroke-linecap:round;stroke-linejoin:round;stroke-miterlimit:10;" x1="245.61" y1="418.193" x2="188.336" y2="418.193"/>
		</g>
	</g>
</g>
<g id="Character_1">
	<g id="Character">
		<g id="Character_00000046331455636733948530000014600106592916803485_">
			<g id="Arm_00000044873385237425960470000017246000312916907685_">
				<g id="Arm_00000086656315579330707820000010474718745882492087_">
					<g>
						<path style="fill:#FFC4B0;" d="M110.969,246.98c7.467,6.57,11.148,9.842,20.294,7.872
							c12.315-2.653,31.199-12.96,36.088-16.094c4.889-3.135,10.775-5.899,14.367-7.665c3.592-1.767,5.707-3.582,8.068-6.1
							c1.799-1.92,0.909-4.763,0.909-4.763s1.927-1.624,0.788-3.104c-1.139-1.48-3.057-0.054-3.057-0.054s0.589-1.3-1.732-2.107
							c-1.16-0.403-1.886-0.379-5.36,1.025c-2.84,1.147-8.71,3.734-11.175,3.761c-2.465,0.027-0.471-3.393,0.953-5.591
							c1.424-2.198,0.764-4.363-0.786-4.258c-1.549,0.105-5.248,2.236-7.767,6.661c-4.516,7.933-5.948,11.759-11.813,13.63
							c-2.607,0.831-21.966,3.384-21.966,3.384s-15.176-16.452-22.196-24.253c-7.021-7.801-8.368-8.51-15.672-10.495v27.87
							C90.913,226.698,106.308,242.879,110.969,246.98z"/>
					</g>
					<path style="fill:#F55571;" d="M89.397,197.118c9.139,1.974,11.67,3.97,20.354,14.105
						c8.684,10.135,19.131,20.795,19.131,20.795l20.584-3.458l2.013,6.656l-5.745,4.008l7.567-0.595l3.091,7.146
						c0,0-15.453,7.808-21.849,9.936c-6.396,2.128-12.268,3.312-20.175-3.913c-6.311-5.767-24.97-24.606-24.97-24.606V197.118z"/>
					
						<path style="fill:none;stroke:#303030;stroke-width:1.5;stroke-linecap:round;stroke-linejoin:round;stroke-miterlimit:10;" d="
						M128.882,232.018c-6.521,1.089-10.419,6.561-10.419,6.561"/>
					
						<path style="fill:none;stroke:#303030;stroke-width:1.5;stroke-linecap:round;stroke-linejoin:round;stroke-miterlimit:10;" d="
						M181.394,228.845c0.856-0.76,1.361-1.584,3.888-4.855c0.292-0.378,0.597-0.835,0.477-1.298
						c-0.099-0.385-0.473-0.642-0.854-0.755c-1.061-0.314-2.185,0.241-3.058,0.921c-2.927,2.279-5.316,6.402-9.595,5.241
						c-0.974-0.264-1.905-0.683-2.893-0.891c-2.79-0.587-5.881,0.738-7.38,3.163"/>
					
						<path style="fill:none;stroke:#303030;stroke-width:1.5;stroke-linecap:round;stroke-linejoin:round;stroke-miterlimit:10;" d="
						M190.695,220.229c-1.162-0.277-2.252,0.613-5.055,2.204"/>
					
						<path style="fill:none;stroke:#303030;stroke-width:1.5;stroke-linecap:round;stroke-linejoin:round;stroke-miterlimit:10;" d="
						M188.426,217.071c-1.657,0.803-9.621,4.502-9.621,4.502"/>
				</g>
			</g>
			<g id="Legs_00000146481758452192979300000011138978387172580225_">
				<g>
					<path style="fill:#FFC4B0;" d="M139.325,329.628c0.305,17.771,7.42,40.539,8.977,57.417c0,0,0.179,2.354-1.948,9.621
						c-1.16,3.965-4.239,11.33,1.199,14.543c0.78,0.461,15.783-0.835,19.718,5.239c8.154,12.585,8.899,17.646,28.648,17.646
						c13.326,0,18.044,0.124,18.044-1.121c0-3.505-1.111-3.446-6.567-6.402c-5.816-3.151-5.982-4.383-10.113-7.533
						c-4.421-3.372-10.09-9.648-15.031-16.505c-3.676-5.101-5.807-13.214-5.806-24.057c0.001-10.844,1.887-31.953,2.695-54.285
						c1.037-28.696-11.495-36.666-29.728-39.094c-20.2-2.689-72.965-1.05-72.965-1.05H55.221
						c-6.898,18.339-5.384,39.266,13.21,43.86c10.31,2.547,25.324,1.717,43.688,1.717
						C130.484,329.624,139.325,329.628,139.325,329.628z"/>
				</g>
				<g>
					<path style="fill:#F55571;" d="M208.93,431.452h-14.07c-8.952,0-16.376-0.655-19.652-2.996
						c-3.275-2.341-8.734-12.289-12.664-15.359c-1.105-0.863-2.865-1.463-4.934-1.888v6.082c4.361,1.024,10.573,12.956,13.886,16.87
						c4.137,4.889,15.503,3.996,23.801,3.996h13.823c1.911,0,3.449-1.599,3.348-3.533
						C212.372,432.811,210.745,431.452,208.93,431.452z"/>
					<path style="fill:#303030;" d="M208.333,425.97c-1.85-1.02-6.84-4.135-11.05-6.933c0.127,3.138-8.316,2.927-15.322-1.648
						c-7.939-5.185-11.425-10.624-16.38-16.868c-5.667-7.143-6.938-11.041-17.898-13.627c-0.198,6.252-5.922,12.951-3.973,24.055
						c0,0,6.2,2.264,11.395,3.189c5.194,0.925,8.722,1.936,11.448,5.347c2.323,2.907,6.927,8.893,12.358,12.991
						c2.518,1.9,5.75,1.745,13.067,1.939c11.515,0.305,23.311,0.21,23.311,0.21C215.289,431.014,215.07,429.686,208.333,425.97z"/>
					<path style="fill:#303030;" d="M211.751,431.452h-14.07c-8.952,0-16.376-0.655-19.652-2.996
						c-3.275-2.341-8.734-12.289-12.664-15.359c-3.93-3.07-15.984-2.887-21.728-2.887c0,1.028,0.622,2.741,1.019,3.878
						c0.95,2.723,4.379,6.659,4.379,24.069h6.992c0-9.481-0.504-21.242,4.316-20.891c4.367,0.881,10.481,13.094,13.974,16.895
						c3.493,3.8,15.503,3.996,23.801,3.996h13.823c1.911,0,3.449-1.599,3.348-3.533
						C215.194,432.811,213.567,431.452,211.751,431.452z"/>
				</g>
				<g id="Leg_00000130640593348127715240000005715249640581702020_">
					<g>
						<path style="fill:#FFC4B0;" d="M125.8,328.401c-5.331,8.503-4.593,15.338-14.439,29.134c0,0-1.402,1.9-7.76,6.013
							c-3.468,2.244-10.611,5.81-8.592,11.794c0.29,0.859,12.496,9.677,11.508,16.847c-2.047,14.855-4.789,19.174,10.165,32.074
							c10.09,8.705,13.582,11.88,14.395,10.938c2.29-2.654,1.41-3.335-0.79-9.137c-2.345-6.185-1.667-7.226-2.736-12.309
							c-1.145-5.441-1.338-13.896-0.6-22.316c0.549-6.263,4.045-15.522,9.807-22.091c5.762-6.569,22.515-25.263,33.645-40.948
							c10.008-14.103,11.41-29.443-3.631-37.651c-14.365-7.839-40.507-6.758-56.479-7.198l-9.538-7.923H50.581
							c-8.932,30.023,3.146,48.509,13.962,50.98C75.358,329.08,125.8,328.401,125.8,328.401z"/>
					</g>
					<g>
						<path style="fill:#F55571;" d="M128.26,430.762l-10.654-9.191c-6.778-5.848-11.972-11.193-12.923-15.105
							c-0.951-3.912,1.414-15.01,0.444-19.902c-0.273-1.376-1.214-2.979-2.502-4.652l-3.973,4.605
							c2.633,3.624-0.457,16.716-0.506,21.844c-0.061,6.404,9.128,13.153,15.411,18.573l10.466,9.03
							c1.447,1.248,3.656,1.042,4.843-0.488C129.978,434.04,129.634,431.948,128.26,430.762z"/>
						<path style="fill:#303030;" d="M131.388,426.222c-0.734-1.981-2.477-7.599-3.838-12.467
							c-1.953,2.459-8.209-3.216-10.525-11.256c-2.624-9.112-1.711-15.507-1.384-23.472c0.374-9.11,1.959-12.892-4.651-22.01
							c-4.234,4.605-12.944,5.938-18.721,15.619c0,0,3.216,5.764,6.545,9.858c3.329,4.094,5.34,7.163,5.175,11.526
							c-0.14,3.718-0.564,11.258,0.871,17.909c0.666,3.083,3.214,5.077,8.627,10.003c8.52,7.753,17.514,15.387,17.514,15.387
							C133.361,434.585,134.063,433.436,131.388,426.222z"/>
						<path style="fill:#303030;" d="M130.396,432.606l-10.654-9.191c-6.778-5.848-11.972-11.193-12.923-15.105
							c-0.951-3.912,1.414-15.01,0.444-19.902c-0.97-4.892-10.217-12.626-14.566-16.379c-0.672,0.778-1.319,2.482-1.762,3.602
							c-1.06,2.683-1.034,7.902-12.406,21.085l5.294,4.567c6.193-7.178,13.494-16.413,16.915-12.998
							c2.731,3.52-0.617,16.76-0.455,21.92c0.162,5.16,9.128,13.153,15.411,18.573l10.466,9.029
							c1.447,1.248,3.656,1.042,4.843-0.488C132.115,435.884,131.771,433.792,130.396,432.606z"/>
					</g>
					<path style="fill:#303030;" d="M71.819,328.594c-21.238,0-30.17-21.875-22.919-53.896h53.277l4.388,3.072
						c46.975,1.552,60.228,5.953,66.44,13.216c6.81,7.963,8.597,18.973-3.763,42.433c-11.631,22.076-19.583,35.814-27.566,48.493
						c-21.69-1.214-37.897-26.417-37.897-26.417s10.06-17.043,15.799-27.095C119.577,328.401,93.058,328.594,71.819,328.594z"/>
				</g>
				<path style="fill:#00826F;" d="M185.628,387.764c-0.288-6.864-4.06-54.575-4.599-70.683
					c-0.344-10.28-1.362-20.176-12.205-27.762c-10.843-7.585-34.086-7.449-57.738-8.537c-5.84-7.708-11.146-16.489-11.146-16.489
					H49.416c0,0-22.429,66.787,25.947,66.787h29.682c11.646,0,31.227,0,31.227,0s1.866,39.105,1.507,55.542
					C155.998,395.306,174.283,393.239,185.628,387.764z"/>
				<path style="fill:none;stroke:#303030;stroke-linecap:round;stroke-linejoin:round;stroke-miterlimit:10;" d="M111.539,280.361
					c-13.544-0.793-27.088,0.422-27.088,0.422"/>
				<path style="fill:none;stroke:#303030;stroke-linecap:round;stroke-linejoin:round;stroke-miterlimit:10;" d="M142.988,305.693
					c-5.135,6.619-7.214,13.918-7.214,26.441"/>
			</g>
			<g id="Shoulder_00000013873799112120594810000000841565341798540212_">
				<path id="Shoulder_00000154406038169560690710000008447185203678911163_" style="fill:#F55571;" d="M72.302,190.834
					c11.192,4.618,16.104,4.43,22.663,9.921c9.567,10.392,11.217,16.576,14.133,55.245c1.441,19.104,1.87,24.092,1.87,24.092
					l-31.271,8.803L72.302,190.834z"/>
				
					<path id="Shoulder_00000051369436009997216360000001965779032553150903_" style="fill:none;stroke:#303030;stroke-width:1.5;stroke-linecap:round;stroke-linejoin:round;stroke-miterlimit:10;" d="
					M94.966,200.755c9.567,10.392,11.869,16.94,14.785,55.609"/>
			</g>
			
				<path id="Neck_2_00000042710416165528911420000013134071334497647514_" style="fill:#FFFFFF;stroke:#303030;stroke-width:1.5;stroke-linecap:round;stroke-linejoin:round;stroke-miterlimit:10;" d="
				M75.717,194.242l0.397-6.23c0,0,8.812,3.336,11.309,5.868c1.103,1.119-1.11,4.283-0.543,5.605
				c0.845,1.971,10.614,11.558,14.171,18.681c5.5,11.013,3.57,25.705,3.57,25.705l-25.648-29.554L75.717,194.242z"/>
			<g id="Head_00000149378606660351283970000008624452164031668408_">
				<path style="fill:#303030;" d="M98.401,155.415c2.08,12.884-6.988,25.065-20.254,27.206
					c-13.266,2.142-25.707-6.566-27.787-19.45s6.988-25.064,20.254-27.206C88.222,133.123,102.669,140.806,98.401,155.415z"/>
				<g>
					<path style="fill:#FFC4B0;" d="M99.158,166.744c-0.092-1.407-1.308-3.425-1.837-6.505c-0.303-1.764,0.442-3.221-0.078-5.289
						c-1.08-4.29-4.073-10.168-13.527-10.371c0.614,14.571-11.171,19.978-11.171,19.978c0.68,2.159,1.923,7.997,1.923,7.997l0,0
						c-1.882,4.736-5.236,7.52-11.294,7.872l-4.983,9.981l0.155,7.487c4.691,4.292,12.277,10.738,23.514,8.586l-4.068-11.569
						l2.549-9.208C91.468,187.847,100.391,185.639,99.158,166.744z"/>
				</g>
				<g>
					
						<path style="fill:#FFC4B0;stroke:#303030;stroke-width:1.5;stroke-linecap:round;stroke-linejoin:round;stroke-miterlimit:10;" d="
						M74.93,162.695c-1.431-1.649-4.17-2.691-7.167-1.428c-2.706,1.14-4.077,3.998-3.561,6.724c0.511,2.695,2.676,4.499,5.053,5.163
						c2.904,0.81,5.053-0.277,6.623-1.575"/>
					<g>
						
							<path style="fill:none;stroke:#303030;stroke-width:1.5;stroke-linecap:round;stroke-linejoin:round;stroke-miterlimit:10;" d="
							M68.252,167.208c0.342-1.329,1.313-2.177,2.483-2.166c1.17,0.01,2.5,0.877,3.402,2.217"/>
						
							<path style="fill:none;stroke:#303030;stroke-width:1.5;stroke-linecap:round;stroke-linejoin:round;stroke-miterlimit:10;" d="
							M70.792,167.936c0.116-0.607,0.438-1.059,0.83-1.368c0.392-0.309,0.88-0.458,1.348-0.554"/>
					</g>
				</g>
				<g>
					<g>
						<g>
							<path style="fill:#FFFFFF;" d="M86.722,161.522c0,0,1.018-1.285,2.507-2.309c1.134-0.78,2.908-0.921,3.607-0.573
								c0.398,0.375,1.11,1.579,0.393,3.304C92.169,162.893,88.51,162.572,86.722,161.522z"/>
						</g>
						<path style="fill:#303030;" d="M93.81,161.414c-0.428,0.98-1.525,1.413-2.451,0.968c-0.926-0.445-1.33-1.6-0.902-2.58
							c0.428-0.98,1.525-1.413,2.451-0.968C93.834,159.279,94.237,160.434,93.81,161.414z"/>
						<polygon style="fill:#FFFFFF;" points="90.129,160.219 92.133,160.609 90.222,161.265 						"/>
						
							<path style="fill:none;stroke:#303030;stroke-width:1.5;stroke-linecap:round;stroke-linejoin:round;stroke-miterlimit:10;" d="
							M92.836,158.64c-2.194,0.061-3.791,0.711-6.168,2.644"/>
						
							<path style="fill:none;stroke:#303030;stroke-width:1.5;stroke-linecap:round;stroke-linejoin:round;stroke-miterlimit:10;" d="
							M93.649,158.293c-0.335,0.312-0.813,0.347-1.485,0.373"/>
					</g>
					
						<path style="fill:#FFC4B0;stroke:#303030;stroke-width:1.5;stroke-linecap:round;stroke-linejoin:round;stroke-miterlimit:10;" d="
						M98.533,169.922c2.183-0.549,4.924-2.741,3.369-4.814c-1.451-1.934-4.196-1.655-5.164-8.714"/>
					
						<path style="fill:none;stroke:#303030;stroke-width:1.5;stroke-linecap:round;stroke-linejoin:round;stroke-miterlimit:10;" d="
						M92.248,152.827c-3.735-0.011-5.849,0.563-8.008,3.899"/>
					
						<path style="fill:none;stroke:#303030;stroke-width:1.5;stroke-linecap:round;stroke-linejoin:round;stroke-miterlimit:10;" d="
						M96.583,173.785c-2.108,0.477-4.328,0.141-5.854-1.034"/>
				</g>
				<path style="fill:#303030;" d="M81.295,183.065l-0.953,2.638c4.351,0.838,8.001,1.162,11.426-0.167
					C84.981,185.096,81.295,183.065,81.295,183.065z"/>
				<path style="fill:none;stroke:#303030;stroke-width:1.5;stroke-linecap:round;stroke-linejoin:round;stroke-miterlimit:10;" d="
					M83.501,143.25c1.47,1.703,2.945,9.324,0.087,14.553c-1.967,3.599-5.275,5.153-8.771,4.193"/>
				<g>
					<path style="fill:#303030;" d="M62.493,126.36c-2.082,0.306-4.176,1.585-5.464,3.061c-0.11,0.126-0.23,0.264-0.395,0.295
						c-0.139,0.027-0.28-0.029-0.414-0.077c-1.889-0.678-4.002,0.132-5.646,1.284c-2.171,1.521-3.896,3.647-5.036,6.039
						c-1.07,2.246-1.631,4.844-0.954,7.238c0.676,2.394,2.813,4.466,5.3,4.523c-0.85,1.956,0.044,4.389,1.755,5.662
						c1.711,1.273,4.039,1.501,6.112,1.001c2.073-0.499,3.931-1.651,5.632-2.937c3.148-2.379,5.95-5.359,7.488-8.993
						c1.343-3.175,1.695-7.074,0.295-10.297c-1.361-3.136-3.115-6.117-6.791-6.784C63.764,126.264,63.129,126.267,62.493,126.36z"/>
					
						<path style="fill:none;stroke:#303030;stroke-width:1.5;stroke-linecap:round;stroke-linejoin:round;stroke-miterlimit:10;" d="
						M69.338,132.903c0.925-0.885,1.205-2.303,0.939-3.555c-0.265-1.252-1.006-2.358-1.869-3.303
						c-0.622-0.681-1.333-1.309-2.185-1.662c-0.938-0.389-1.991-0.42-2.998-0.289c-5.015,0.652-7.93,4.463-8.362,9.347
						c-0.505-0.304-1.146-0.209-1.722-0.084c-2.741,0.593-5.425,1.676-7.555,3.5s-3.657,4.451-3.782,7.253
						c-0.125,2.801,1.31,5.714,3.804,6.997c0.691,0.356,1.457,0.587,2.235,0.589c1.866,0.004,3.463-1.262,4.89-2.463"/>
					
						<path style="fill:none;stroke:#303030;stroke-width:1.5;stroke-linecap:round;stroke-linejoin:round;stroke-miterlimit:10;" d="
						M41.843,131.414c1.74-0.344,3.595-0.078,5.167,0.742s2.853,2.188,3.568,3.811"/>
					
						<path style="fill:none;stroke:#303030;stroke-width:1.5;stroke-linecap:round;stroke-linejoin:round;stroke-miterlimit:10;" d="
						M45.992,127.801c2.353,1.555,4.068,4.047,4.68,6.8"/>
				</g>
			</g>
			<g id="Neck_1_00000095335053789207854070000017901331845778340993_">
				
					<path style="fill:#FFFFFF;stroke:#303030;stroke-width:1.5;stroke-linecap:round;stroke-linejoin:round;stroke-miterlimit:10;" d="
					M104.62,243.87l-48.254-52.012l4.624-8.121c2.005,2.299,5.086,4.52,11.312,7.097c7.627,3.156,11.944,3.398,11.741,6.189
					c-0.153,2.101-1.422,5.201-0.469,6.29C93.996,215.221,104.618,218.684,104.62,243.87z"/>
				
					<path style="fill:#FFFFFF;stroke:#303030;stroke-width:1.5;stroke-linecap:round;stroke-linejoin:round;stroke-miterlimit:10;" d="
					M82.189,197.593c-1.451-0.57-2.828,1.071-4.201,3.924c0,0-7.723-2.172-17.412-8.053"/>
			</g>
			<g id="Jacket_00000026124992078033727520000009873550835524515241_">
				<path style="fill:#F55571;" d="M55.084,190.131c0,0-5.081,6.57-7.971,10.658s-8.982,12.326-6.14,23.859
					c2.914,11.821,5.643,23.302,6.498,29.903c0.506,3.907-3.248,17.075-4.22,33.196c16.584,7.475,56.573,8.853,71.116-6.964
					l-4.617-24.419C105.958,244.065,99.216,227.467,55.084,190.131z"/>
				<path style="fill:none;stroke:#303030;stroke-width:1.5;stroke-linecap:round;stroke-linejoin:round;stroke-miterlimit:10;" d="
					M56.864,198.418c-1.039,2.204-1.915,4.486-2.618,6.819"/>
				
					<path style="fill:#F55571;stroke:#303030;stroke-width:1.5;stroke-linecap:round;stroke-linejoin:round;stroke-miterlimit:10;" d="
					M56.282,188.219l-3.342,5.895l10.217,10.804c0,0,5.552-0.099,10.458,1.342l-7.52,1.236c0,0,13.88,10.138,21.479,18.13
					c7.6,7.992,18.547,19.582,22.176,30.739c-4.253-17.137-11.72-31.596-27.922-47.123S56.282,188.219,56.282,188.219z"/>
			</g>
			<g id="Arm_00000152253805618105133420000018360806626623723410_">
				<g id="Arm_00000035525746934283149660000000409626193323306148_">
					<g>
						<path style="fill:#FFC4B0;" d="M57.946,210.414c5.792,3.748,8.524,6.558,11.834,21.806
							c3.141,14.473,6.281,28.198,6.281,28.198s25.496,6.615,32.681,7.584c4.723,0.637,18.052,0.538,21.555,1.642
							c3.503,1.104,9.506,4.455,11.058,5.751c1.684,1.406,6.465,6.347,6.532,7.53c0.115,2.024-2.887,1.811-6.399-0.598
							c-1.448,1.449-3.322,1.867-8.701,0.275c-5.379-1.591-8.267-1.315-13.142-0.007c-4.876,1.308-7.805-0.575-10.695-0.788
							c-5.881-0.433-26.758-0.158-38.389-0.465c-7.998-0.211-13.452-2.77-16.314-9.761c-3.429-8.376-5.601-13.475-10.826-31.678
							c-5.237-18.245-3.159-22.347-0.408-27.405C45.166,208.539,52.154,206.666,57.946,210.414z"/>
						<path style="fill:none;stroke:#303030;stroke-linecap:round;stroke-linejoin:round;stroke-miterlimit:10;" d="M69.397,260.393
							c2.956-0.249,4.746-0.184,7.087,0.071"/>
						<path style="fill:none;stroke:#303030;stroke-linecap:round;stroke-linejoin:round;stroke-miterlimit:10;" d="
							M128.882,273.734c3.594,1.449,7.082,3.162,10.427,5.12c1.004,0.588,2.98,2.083,2.18,3.472"/>
					</g>
					<g>
						<path style="fill:#303030;" d="M104.583,282.401l2.2-0.049c0.341-0.008,0.62-0.273,0.645-0.613l1.028-13.945l-3.616-0.613
							l-1.059,14.376C103.746,282.019,104.118,282.411,104.583,282.401z"/>
						<path style="fill:#303030;" d="M111.014,268.634l-8.632-1.282c-0.488-0.072-0.825-0.527-0.752-1.015l0.088-0.592
							c0.073-0.488,0.527-0.825,1.015-0.753l8.632,1.282c0.488,0.072,0.825,0.527,0.753,1.015l-0.088,0.592
							C111.956,268.37,111.502,268.707,111.014,268.634z"/>
					</g>
				</g>
				<g>
					<path style="fill:#F55571;" d="M42.537,208.382c-3.386,6.604-4.093,12.964-1.266,26.391
						c2.827,13.427,9.912,32.433,11.67,36.852c1.758,4.419,4.302,9.224,10.662,10.072c6.36,0.848,20.849,0.703,20.849,0.703
						l1.604-8.667l-7.66-2.108c0,0,8.528-0.952,8.387-1.376c-0.141-0.424,1.555-7.632,1.555-7.632l-11.853-3.046
						c0,0-2.078-11.353-4.983-25.063c-2.906-13.71-4.259-20.652-12.43-26.126C53.598,204.716,45.924,206.301,42.537,208.382z"/>
					
						<path style="fill:none;stroke:#303030;stroke-width:1.5;stroke-linecap:round;stroke-linejoin:round;stroke-miterlimit:10;" d="
						M76.484,259.572c-5.401-1.257-9.905,0-9.905,0"/>
					
						<path style="fill:none;stroke:#303030;stroke-width:1.5;stroke-linecap:round;stroke-linejoin:round;stroke-miterlimit:10;" d="
						M41.271,234.774c2.827,13.427,9.912,32.433,11.67,36.852c1.758,4.419,4.302,9.224,10.662,10.072
						c6.36,0.848,20.849,0.703,20.849,0.703l1.604-8.667l-7.66-2.108c0,0,8.528-0.952,8.387-1.376
						c-0.141-0.424,1.555-7.632,1.555-7.632l-11.853-3.046c0,0-2.078-11.353-4.983-25.063c-2.906-13.71-4.259-20.652-12.43-26.126
						c-5.472-3.666-13.147-2.081-16.533,0"/>
				</g>
			</g>
		</g>
		<g id="Chair_00000032633643789137689730000005779586680070667678_">
			<g>
				
					<line style="fill:none;stroke:#303030;stroke-width:1.5;stroke-linecap:round;stroke-linejoin:round;stroke-miterlimit:10;" x1="84.451" y1="335.197" x2="84.451" y2="437.608"/>
				
					<path style="fill:#303030;stroke:#303030;stroke-width:1.5;stroke-linecap:round;stroke-linejoin:round;stroke-miterlimit:10;" d="
					M84.451,419.399c0,9.591-16.495,16.125-43.588,16.125v2.083h43.588h43.588v-2.083C100.946,435.524,84.451,428.99,84.451,419.399
					z"/>
			</g>
			<g>
				<path style="fill:#FF95FB;" d="M133.017,342.646H35.885l0,0c0-6.509,5.277-11.786,11.785-11.786h73.561
					C127.74,330.861,133.017,336.137,133.017,342.646L133.017,342.646z"/>
				<path style="fill:#303030;" d="M37.497,347.399h93.908c0.89,0,1.612-0.721,1.612-1.612v-3.141H35.885v3.141
					C35.885,346.677,36.606,347.399,37.497,347.399z"/>
			</g>
			<g>
				<path style="fill:#FF95FB;" d="M29.582,305.652L29.582,305.652l-12.765-99.885h0c6.729,0,12.882,5.455,13.741,12.184
					l9.651,75.516C41.069,300.197,36.311,305.652,29.582,305.652z"/>
				<path style="fill:#303030;" d="M32.504,347.399L32.504,347.399c1.28,0,2.269-1.124,2.107-2.393l-10.092-78.968l0,0
					c-2.272,0-4.028,1.994-3.74,4.248l9.618,75.259C30.533,346.605,31.435,347.399,32.504,347.399z"/>
			</g>
			<g>
				<path style="fill:#FF95FB;" d="M100.942,281.329H60.446c-4.398,0-7.963,3.565-7.963,7.963l0,0h56.422l0,0
					C108.905,284.894,105.34,281.329,100.942,281.329z"/>
				<path style="fill:#303030;" d="M107.068,292.745H54.32c-1.015,0-1.837-0.822-1.837-1.837v-1.616h56.422v1.616
					C108.905,291.923,108.082,292.745,107.068,292.745z"/>
				<polygon style="fill:#303030;" points="64.313,292.745 68.05,299.468 52.483,347.399 60.266,347.399 80.694,299.468 
					91.156,292.745 				"/>
			</g>
		</g>
	</g>
</g>
</svg>
